G04 #@! TF.GenerationSoftware,KiCad,Pcbnew,9.0.0*
G04 #@! TF.CreationDate,2025-05-20T10:08:30-07:00*
G04 #@! TF.ProjectId,coil_tempeauture_interlock,636f696c-5f74-4656-9d70-656175747572,rev?*
G04 #@! TF.SameCoordinates,Original*
G04 #@! TF.FileFunction,Legend,Top*
G04 #@! TF.FilePolarity,Positive*
%FSLAX46Y46*%
G04 Gerber Fmt 4.6, Leading zero omitted, Abs format (unit mm)*
G04 Created by KiCad (PCBNEW 9.0.0) date 2025-05-20 10:08:30*
%MOMM*%
%LPD*%
G01*
G04 APERTURE LIST*
G04 Aperture macros list*
%AMRoundRect*
0 Rectangle with rounded corners*
0 $1 Rounding radius*
0 $2 $3 $4 $5 $6 $7 $8 $9 X,Y pos of 4 corners*
0 Add a 4 corners polygon primitive as box body*
4,1,4,$2,$3,$4,$5,$6,$7,$8,$9,$2,$3,0*
0 Add four circle primitives for the rounded corners*
1,1,$1+$1,$2,$3*
1,1,$1+$1,$4,$5*
1,1,$1+$1,$6,$7*
1,1,$1+$1,$8,$9*
0 Add four rect primitives between the rounded corners*
20,1,$1+$1,$2,$3,$4,$5,0*
20,1,$1+$1,$4,$5,$6,$7,0*
20,1,$1+$1,$6,$7,$8,$9,0*
20,1,$1+$1,$8,$9,$2,$3,0*%
G04 Aperture macros list end*
%ADD10C,0.150000*%
%ADD11C,0.120000*%
%ADD12C,1.440000*%
%ADD13C,1.600000*%
%ADD14O,1.600000X1.600000*%
%ADD15R,2.290000X5.080000*%
%ADD16R,2.420000X5.080000*%
%ADD17RoundRect,0.249999X-1.025001X-1.025001X1.025001X-1.025001X1.025001X1.025001X-1.025001X1.025001X0*%
%ADD18C,2.550000*%
%ADD19RoundRect,0.250000X0.265000X0.615000X-0.265000X0.615000X-0.265000X-0.615000X0.265000X-0.615000X0*%
%ADD20O,1.030000X1.730000*%
%ADD21C,3.200000*%
%ADD22RoundRect,0.250000X0.350000X0.625000X-0.350000X0.625000X-0.350000X-0.625000X0.350000X-0.625000X0*%
%ADD23O,1.200000X1.750000*%
%ADD24R,1.050000X1.500000*%
%ADD25O,1.050000X1.500000*%
%ADD26RoundRect,0.250000X-0.950000X-0.550000X0.950000X-0.550000X0.950000X0.550000X-0.950000X0.550000X0*%
%ADD27O,2.400000X1.600000*%
%ADD28RoundRect,0.249999X1.025001X1.025001X-1.025001X1.025001X-1.025001X-1.025001X1.025001X-1.025001X0*%
G04 APERTURE END LIST*
D10*
X134250000Y-59000000D02*
X134250000Y-57500000D01*
X126750000Y-59000000D02*
X134250000Y-59000000D01*
X114250000Y-59000000D02*
X114250000Y-57500000D01*
X121750000Y-59000000D02*
X114250000Y-59000000D01*
X122321428Y-58788152D02*
X122321428Y-59788152D01*
X122321428Y-58835771D02*
X122416666Y-58788152D01*
X122416666Y-58788152D02*
X122607142Y-58788152D01*
X122607142Y-58788152D02*
X122702380Y-58835771D01*
X122702380Y-58835771D02*
X122749999Y-58883390D01*
X122749999Y-58883390D02*
X122797618Y-58978628D01*
X122797618Y-58978628D02*
X122797618Y-59264342D01*
X122797618Y-59264342D02*
X122749999Y-59359580D01*
X122749999Y-59359580D02*
X122702380Y-59407200D01*
X122702380Y-59407200D02*
X122607142Y-59454819D01*
X122607142Y-59454819D02*
X122416666Y-59454819D01*
X122416666Y-59454819D02*
X122321428Y-59407200D01*
X123369047Y-59454819D02*
X123273809Y-59407200D01*
X123273809Y-59407200D02*
X123226190Y-59359580D01*
X123226190Y-59359580D02*
X123178571Y-59264342D01*
X123178571Y-59264342D02*
X123178571Y-58978628D01*
X123178571Y-58978628D02*
X123226190Y-58883390D01*
X123226190Y-58883390D02*
X123273809Y-58835771D01*
X123273809Y-58835771D02*
X123369047Y-58788152D01*
X123369047Y-58788152D02*
X123511904Y-58788152D01*
X123511904Y-58788152D02*
X123607142Y-58835771D01*
X123607142Y-58835771D02*
X123654761Y-58883390D01*
X123654761Y-58883390D02*
X123702380Y-58978628D01*
X123702380Y-58978628D02*
X123702380Y-59264342D01*
X123702380Y-59264342D02*
X123654761Y-59359580D01*
X123654761Y-59359580D02*
X123607142Y-59407200D01*
X123607142Y-59407200D02*
X123511904Y-59454819D01*
X123511904Y-59454819D02*
X123369047Y-59454819D01*
X124035714Y-58788152D02*
X124226190Y-59454819D01*
X124226190Y-59454819D02*
X124416666Y-58978628D01*
X124416666Y-58978628D02*
X124607142Y-59454819D01*
X124607142Y-59454819D02*
X124797618Y-58788152D01*
X125559523Y-59407200D02*
X125464285Y-59454819D01*
X125464285Y-59454819D02*
X125273809Y-59454819D01*
X125273809Y-59454819D02*
X125178571Y-59407200D01*
X125178571Y-59407200D02*
X125130952Y-59311961D01*
X125130952Y-59311961D02*
X125130952Y-58931009D01*
X125130952Y-58931009D02*
X125178571Y-58835771D01*
X125178571Y-58835771D02*
X125273809Y-58788152D01*
X125273809Y-58788152D02*
X125464285Y-58788152D01*
X125464285Y-58788152D02*
X125559523Y-58835771D01*
X125559523Y-58835771D02*
X125607142Y-58931009D01*
X125607142Y-58931009D02*
X125607142Y-59026247D01*
X125607142Y-59026247D02*
X125130952Y-59121485D01*
X126035714Y-59454819D02*
X126035714Y-58788152D01*
X126035714Y-58978628D02*
X126083333Y-58883390D01*
X126083333Y-58883390D02*
X126130952Y-58835771D01*
X126130952Y-58835771D02*
X126226190Y-58788152D01*
X126226190Y-58788152D02*
X126321428Y-58788152D01*
X151773866Y-59908207D02*
X151773866Y-59146303D01*
X151154819Y-58193922D02*
X151154819Y-58670112D01*
X151154819Y-58670112D02*
X151631009Y-58717731D01*
X151631009Y-58717731D02*
X151583390Y-58670112D01*
X151583390Y-58670112D02*
X151535771Y-58574874D01*
X151535771Y-58574874D02*
X151535771Y-58336779D01*
X151535771Y-58336779D02*
X151583390Y-58241541D01*
X151583390Y-58241541D02*
X151631009Y-58193922D01*
X151631009Y-58193922D02*
X151726247Y-58146303D01*
X151726247Y-58146303D02*
X151964342Y-58146303D01*
X151964342Y-58146303D02*
X152059580Y-58193922D01*
X152059580Y-58193922D02*
X152107200Y-58241541D01*
X152107200Y-58241541D02*
X152154819Y-58336779D01*
X152154819Y-58336779D02*
X152154819Y-58574874D01*
X152154819Y-58574874D02*
X152107200Y-58670112D01*
X152107200Y-58670112D02*
X152059580Y-58717731D01*
X151154819Y-57860588D02*
X152154819Y-57527255D01*
X152154819Y-57527255D02*
X151154819Y-57193922D01*
X146973866Y-60860588D02*
X146973866Y-60098684D01*
X147354819Y-59098684D02*
X147354819Y-59670112D01*
X147354819Y-59384398D02*
X146354819Y-59384398D01*
X146354819Y-59384398D02*
X146497676Y-59479636D01*
X146497676Y-59479636D02*
X146592914Y-59574874D01*
X146592914Y-59574874D02*
X146640533Y-59670112D01*
X146450057Y-58717731D02*
X146402438Y-58670112D01*
X146402438Y-58670112D02*
X146354819Y-58574874D01*
X146354819Y-58574874D02*
X146354819Y-58336779D01*
X146354819Y-58336779D02*
X146402438Y-58241541D01*
X146402438Y-58241541D02*
X146450057Y-58193922D01*
X146450057Y-58193922D02*
X146545295Y-58146303D01*
X146545295Y-58146303D02*
X146640533Y-58146303D01*
X146640533Y-58146303D02*
X146783390Y-58193922D01*
X146783390Y-58193922D02*
X147354819Y-58765350D01*
X147354819Y-58765350D02*
X147354819Y-58146303D01*
X146354819Y-57860588D02*
X147354819Y-57527255D01*
X147354819Y-57527255D02*
X146354819Y-57193922D01*
X156573866Y-59908207D02*
X156573866Y-59146303D01*
X156954819Y-59527255D02*
X156192914Y-59527255D01*
X155954819Y-58193922D02*
X155954819Y-58670112D01*
X155954819Y-58670112D02*
X156431009Y-58717731D01*
X156431009Y-58717731D02*
X156383390Y-58670112D01*
X156383390Y-58670112D02*
X156335771Y-58574874D01*
X156335771Y-58574874D02*
X156335771Y-58336779D01*
X156335771Y-58336779D02*
X156383390Y-58241541D01*
X156383390Y-58241541D02*
X156431009Y-58193922D01*
X156431009Y-58193922D02*
X156526247Y-58146303D01*
X156526247Y-58146303D02*
X156764342Y-58146303D01*
X156764342Y-58146303D02*
X156859580Y-58193922D01*
X156859580Y-58193922D02*
X156907200Y-58241541D01*
X156907200Y-58241541D02*
X156954819Y-58336779D01*
X156954819Y-58336779D02*
X156954819Y-58574874D01*
X156954819Y-58574874D02*
X156907200Y-58670112D01*
X156907200Y-58670112D02*
X156859580Y-58717731D01*
X155954819Y-57860588D02*
X156954819Y-57527255D01*
X156954819Y-57527255D02*
X155954819Y-57193922D01*
X196992200Y-58710839D02*
X197039819Y-58567982D01*
X197039819Y-58567982D02*
X197039819Y-58329887D01*
X197039819Y-58329887D02*
X196992200Y-58234649D01*
X196992200Y-58234649D02*
X196944580Y-58187030D01*
X196944580Y-58187030D02*
X196849342Y-58139411D01*
X196849342Y-58139411D02*
X196754104Y-58139411D01*
X196754104Y-58139411D02*
X196658866Y-58187030D01*
X196658866Y-58187030D02*
X196611247Y-58234649D01*
X196611247Y-58234649D02*
X196563628Y-58329887D01*
X196563628Y-58329887D02*
X196516009Y-58520363D01*
X196516009Y-58520363D02*
X196468390Y-58615601D01*
X196468390Y-58615601D02*
X196420771Y-58663220D01*
X196420771Y-58663220D02*
X196325533Y-58710839D01*
X196325533Y-58710839D02*
X196230295Y-58710839D01*
X196230295Y-58710839D02*
X196135057Y-58663220D01*
X196135057Y-58663220D02*
X196087438Y-58615601D01*
X196087438Y-58615601D02*
X196039819Y-58520363D01*
X196039819Y-58520363D02*
X196039819Y-58282268D01*
X196039819Y-58282268D02*
X196087438Y-58139411D01*
X196039819Y-57853696D02*
X196039819Y-57282268D01*
X197039819Y-57567982D02*
X196039819Y-57567982D01*
X196516009Y-56948934D02*
X196516009Y-56615601D01*
X197039819Y-56472744D02*
X197039819Y-56948934D01*
X197039819Y-56948934D02*
X196039819Y-56948934D01*
X196039819Y-56948934D02*
X196039819Y-56472744D01*
X197039819Y-56044172D02*
X196039819Y-56044172D01*
X196039819Y-56044172D02*
X196754104Y-55710839D01*
X196754104Y-55710839D02*
X196039819Y-55377506D01*
X196039819Y-55377506D02*
X197039819Y-55377506D01*
X197039819Y-54901315D02*
X196039819Y-54901315D01*
X196039819Y-54901315D02*
X196754104Y-54567982D01*
X196754104Y-54567982D02*
X196039819Y-54234649D01*
X196039819Y-54234649D02*
X197039819Y-54234649D01*
X196754104Y-53806077D02*
X196754104Y-53329887D01*
X197039819Y-53901315D02*
X196039819Y-53567982D01*
X196039819Y-53567982D02*
X197039819Y-53234649D01*
X181992200Y-58710839D02*
X182039819Y-58567982D01*
X182039819Y-58567982D02*
X182039819Y-58329887D01*
X182039819Y-58329887D02*
X181992200Y-58234649D01*
X181992200Y-58234649D02*
X181944580Y-58187030D01*
X181944580Y-58187030D02*
X181849342Y-58139411D01*
X181849342Y-58139411D02*
X181754104Y-58139411D01*
X181754104Y-58139411D02*
X181658866Y-58187030D01*
X181658866Y-58187030D02*
X181611247Y-58234649D01*
X181611247Y-58234649D02*
X181563628Y-58329887D01*
X181563628Y-58329887D02*
X181516009Y-58520363D01*
X181516009Y-58520363D02*
X181468390Y-58615601D01*
X181468390Y-58615601D02*
X181420771Y-58663220D01*
X181420771Y-58663220D02*
X181325533Y-58710839D01*
X181325533Y-58710839D02*
X181230295Y-58710839D01*
X181230295Y-58710839D02*
X181135057Y-58663220D01*
X181135057Y-58663220D02*
X181087438Y-58615601D01*
X181087438Y-58615601D02*
X181039819Y-58520363D01*
X181039819Y-58520363D02*
X181039819Y-58282268D01*
X181039819Y-58282268D02*
X181087438Y-58139411D01*
X181039819Y-57853696D02*
X181039819Y-57282268D01*
X182039819Y-57567982D02*
X181039819Y-57567982D01*
X181516009Y-56948934D02*
X181516009Y-56615601D01*
X182039819Y-56472744D02*
X182039819Y-56948934D01*
X182039819Y-56948934D02*
X181039819Y-56948934D01*
X181039819Y-56948934D02*
X181039819Y-56472744D01*
X182039819Y-56044172D02*
X181039819Y-56044172D01*
X181039819Y-56044172D02*
X181754104Y-55710839D01*
X181754104Y-55710839D02*
X181039819Y-55377506D01*
X181039819Y-55377506D02*
X182039819Y-55377506D01*
X182039819Y-54901315D02*
X181039819Y-54901315D01*
X181039819Y-54901315D02*
X181754104Y-54567982D01*
X181754104Y-54567982D02*
X181039819Y-54234649D01*
X181039819Y-54234649D02*
X182039819Y-54234649D01*
X181754104Y-53806077D02*
X181754104Y-53329887D01*
X182039819Y-53901315D02*
X181039819Y-53567982D01*
X181039819Y-53567982D02*
X182039819Y-53234649D01*
X161373866Y-60860588D02*
X161373866Y-60098684D01*
X161754819Y-60479636D02*
X160992914Y-60479636D01*
X161754819Y-59098684D02*
X161754819Y-59670112D01*
X161754819Y-59384398D02*
X160754819Y-59384398D01*
X160754819Y-59384398D02*
X160897676Y-59479636D01*
X160897676Y-59479636D02*
X160992914Y-59574874D01*
X160992914Y-59574874D02*
X161040533Y-59670112D01*
X160850057Y-58717731D02*
X160802438Y-58670112D01*
X160802438Y-58670112D02*
X160754819Y-58574874D01*
X160754819Y-58574874D02*
X160754819Y-58336779D01*
X160754819Y-58336779D02*
X160802438Y-58241541D01*
X160802438Y-58241541D02*
X160850057Y-58193922D01*
X160850057Y-58193922D02*
X160945295Y-58146303D01*
X160945295Y-58146303D02*
X161040533Y-58146303D01*
X161040533Y-58146303D02*
X161183390Y-58193922D01*
X161183390Y-58193922D02*
X161754819Y-58765350D01*
X161754819Y-58765350D02*
X161754819Y-58146303D01*
X160754819Y-57860588D02*
X161754819Y-57527255D01*
X161754819Y-57527255D02*
X160754819Y-57193922D01*
X165602438Y-59384398D02*
X165554819Y-59479636D01*
X165554819Y-59479636D02*
X165554819Y-59622493D01*
X165554819Y-59622493D02*
X165602438Y-59765350D01*
X165602438Y-59765350D02*
X165697676Y-59860588D01*
X165697676Y-59860588D02*
X165792914Y-59908207D01*
X165792914Y-59908207D02*
X165983390Y-59955826D01*
X165983390Y-59955826D02*
X166126247Y-59955826D01*
X166126247Y-59955826D02*
X166316723Y-59908207D01*
X166316723Y-59908207D02*
X166411961Y-59860588D01*
X166411961Y-59860588D02*
X166507200Y-59765350D01*
X166507200Y-59765350D02*
X166554819Y-59622493D01*
X166554819Y-59622493D02*
X166554819Y-59527255D01*
X166554819Y-59527255D02*
X166507200Y-59384398D01*
X166507200Y-59384398D02*
X166459580Y-59336779D01*
X166459580Y-59336779D02*
X166126247Y-59336779D01*
X166126247Y-59336779D02*
X166126247Y-59527255D01*
X166554819Y-58908207D02*
X165554819Y-58908207D01*
X165554819Y-58908207D02*
X166554819Y-58336779D01*
X166554819Y-58336779D02*
X165554819Y-58336779D01*
X166554819Y-57860588D02*
X165554819Y-57860588D01*
X165554819Y-57860588D02*
X165554819Y-57622493D01*
X165554819Y-57622493D02*
X165602438Y-57479636D01*
X165602438Y-57479636D02*
X165697676Y-57384398D01*
X165697676Y-57384398D02*
X165792914Y-57336779D01*
X165792914Y-57336779D02*
X165983390Y-57289160D01*
X165983390Y-57289160D02*
X166126247Y-57289160D01*
X166126247Y-57289160D02*
X166316723Y-57336779D01*
X166316723Y-57336779D02*
X166411961Y-57384398D01*
X166411961Y-57384398D02*
X166507200Y-57479636D01*
X166507200Y-57479636D02*
X166554819Y-57622493D01*
X166554819Y-57622493D02*
X166554819Y-57860588D01*
X173807200Y-65470112D02*
X173854819Y-65327255D01*
X173854819Y-65327255D02*
X173854819Y-65089160D01*
X173854819Y-65089160D02*
X173807200Y-64993922D01*
X173807200Y-64993922D02*
X173759580Y-64946303D01*
X173759580Y-64946303D02*
X173664342Y-64898684D01*
X173664342Y-64898684D02*
X173569104Y-64898684D01*
X173569104Y-64898684D02*
X173473866Y-64946303D01*
X173473866Y-64946303D02*
X173426247Y-64993922D01*
X173426247Y-64993922D02*
X173378628Y-65089160D01*
X173378628Y-65089160D02*
X173331009Y-65279636D01*
X173331009Y-65279636D02*
X173283390Y-65374874D01*
X173283390Y-65374874D02*
X173235771Y-65422493D01*
X173235771Y-65422493D02*
X173140533Y-65470112D01*
X173140533Y-65470112D02*
X173045295Y-65470112D01*
X173045295Y-65470112D02*
X172950057Y-65422493D01*
X172950057Y-65422493D02*
X172902438Y-65374874D01*
X172902438Y-65374874D02*
X172854819Y-65279636D01*
X172854819Y-65279636D02*
X172854819Y-65041541D01*
X172854819Y-65041541D02*
X172902438Y-64898684D01*
X173759580Y-63898684D02*
X173807200Y-63946303D01*
X173807200Y-63946303D02*
X173854819Y-64089160D01*
X173854819Y-64089160D02*
X173854819Y-64184398D01*
X173854819Y-64184398D02*
X173807200Y-64327255D01*
X173807200Y-64327255D02*
X173711961Y-64422493D01*
X173711961Y-64422493D02*
X173616723Y-64470112D01*
X173616723Y-64470112D02*
X173426247Y-64517731D01*
X173426247Y-64517731D02*
X173283390Y-64517731D01*
X173283390Y-64517731D02*
X173092914Y-64470112D01*
X173092914Y-64470112D02*
X172997676Y-64422493D01*
X172997676Y-64422493D02*
X172902438Y-64327255D01*
X172902438Y-64327255D02*
X172854819Y-64184398D01*
X172854819Y-64184398D02*
X172854819Y-64089160D01*
X172854819Y-64089160D02*
X172902438Y-63946303D01*
X172902438Y-63946303D02*
X172950057Y-63898684D01*
X173854819Y-62993922D02*
X173854819Y-63470112D01*
X173854819Y-63470112D02*
X172854819Y-63470112D01*
X177849847Y-64898683D02*
X176849847Y-64898683D01*
X176836513Y-64508208D02*
X176798418Y-64470112D01*
X176798418Y-64470112D02*
X176760323Y-64393922D01*
X176760323Y-64393922D02*
X176760323Y-64203446D01*
X176760323Y-64203446D02*
X176798418Y-64127255D01*
X176798418Y-64127255D02*
X176836513Y-64089160D01*
X176836513Y-64089160D02*
X176912704Y-64051065D01*
X176912704Y-64051065D02*
X176988894Y-64051065D01*
X176988894Y-64051065D02*
X177103180Y-64089160D01*
X177103180Y-64089160D02*
X177560323Y-64546303D01*
X177560323Y-64546303D02*
X177560323Y-64051065D01*
X177754608Y-63089160D02*
X177802228Y-63136779D01*
X177802228Y-63136779D02*
X177849847Y-63279636D01*
X177849847Y-63279636D02*
X177849847Y-63374874D01*
X177849847Y-63374874D02*
X177802228Y-63517731D01*
X177802228Y-63517731D02*
X177706989Y-63612969D01*
X177706989Y-63612969D02*
X177611751Y-63660588D01*
X177611751Y-63660588D02*
X177421275Y-63708207D01*
X177421275Y-63708207D02*
X177278418Y-63708207D01*
X177278418Y-63708207D02*
X177087942Y-63660588D01*
X177087942Y-63660588D02*
X176992704Y-63612969D01*
X176992704Y-63612969D02*
X176897466Y-63517731D01*
X176897466Y-63517731D02*
X176849847Y-63374874D01*
X176849847Y-63374874D02*
X176849847Y-63279636D01*
X176849847Y-63279636D02*
X176897466Y-63136779D01*
X176897466Y-63136779D02*
X176945085Y-63089160D01*
X178507410Y-65184398D02*
X178459791Y-65279636D01*
X178459791Y-65279636D02*
X178459791Y-65422493D01*
X178459791Y-65422493D02*
X178507410Y-65565350D01*
X178507410Y-65565350D02*
X178602648Y-65660588D01*
X178602648Y-65660588D02*
X178697886Y-65708207D01*
X178697886Y-65708207D02*
X178888362Y-65755826D01*
X178888362Y-65755826D02*
X179031219Y-65755826D01*
X179031219Y-65755826D02*
X179221695Y-65708207D01*
X179221695Y-65708207D02*
X179316933Y-65660588D01*
X179316933Y-65660588D02*
X179412172Y-65565350D01*
X179412172Y-65565350D02*
X179459791Y-65422493D01*
X179459791Y-65422493D02*
X179459791Y-65327255D01*
X179459791Y-65327255D02*
X179412172Y-65184398D01*
X179412172Y-65184398D02*
X179364552Y-65136779D01*
X179364552Y-65136779D02*
X179031219Y-65136779D01*
X179031219Y-65136779D02*
X179031219Y-65327255D01*
X179459791Y-64708207D02*
X178459791Y-64708207D01*
X178459791Y-64708207D02*
X179459791Y-64136779D01*
X179459791Y-64136779D02*
X178459791Y-64136779D01*
X179459791Y-63660588D02*
X178459791Y-63660588D01*
X178459791Y-63660588D02*
X178459791Y-63422493D01*
X178459791Y-63422493D02*
X178507410Y-63279636D01*
X178507410Y-63279636D02*
X178602648Y-63184398D01*
X178602648Y-63184398D02*
X178697886Y-63136779D01*
X178697886Y-63136779D02*
X178888362Y-63089160D01*
X178888362Y-63089160D02*
X179031219Y-63089160D01*
X179031219Y-63089160D02*
X179221695Y-63136779D01*
X179221695Y-63136779D02*
X179316933Y-63184398D01*
X179316933Y-63184398D02*
X179412172Y-63279636D01*
X179412172Y-63279636D02*
X179459791Y-63422493D01*
X179459791Y-63422493D02*
X179459791Y-63660588D01*
X183407200Y-65517731D02*
X183454819Y-65374874D01*
X183454819Y-65374874D02*
X183454819Y-65136779D01*
X183454819Y-65136779D02*
X183407200Y-65041541D01*
X183407200Y-65041541D02*
X183359580Y-64993922D01*
X183359580Y-64993922D02*
X183264342Y-64946303D01*
X183264342Y-64946303D02*
X183169104Y-64946303D01*
X183169104Y-64946303D02*
X183073866Y-64993922D01*
X183073866Y-64993922D02*
X183026247Y-65041541D01*
X183026247Y-65041541D02*
X182978628Y-65136779D01*
X182978628Y-65136779D02*
X182931009Y-65327255D01*
X182931009Y-65327255D02*
X182883390Y-65422493D01*
X182883390Y-65422493D02*
X182835771Y-65470112D01*
X182835771Y-65470112D02*
X182740533Y-65517731D01*
X182740533Y-65517731D02*
X182645295Y-65517731D01*
X182645295Y-65517731D02*
X182550057Y-65470112D01*
X182550057Y-65470112D02*
X182502438Y-65422493D01*
X182502438Y-65422493D02*
X182454819Y-65327255D01*
X182454819Y-65327255D02*
X182454819Y-65089160D01*
X182454819Y-65089160D02*
X182502438Y-64946303D01*
X183454819Y-64517731D02*
X182454819Y-64517731D01*
X182454819Y-64517731D02*
X182454819Y-64279636D01*
X182454819Y-64279636D02*
X182502438Y-64136779D01*
X182502438Y-64136779D02*
X182597676Y-64041541D01*
X182597676Y-64041541D02*
X182692914Y-63993922D01*
X182692914Y-63993922D02*
X182883390Y-63946303D01*
X182883390Y-63946303D02*
X183026247Y-63946303D01*
X183026247Y-63946303D02*
X183216723Y-63993922D01*
X183216723Y-63993922D02*
X183311961Y-64041541D01*
X183311961Y-64041541D02*
X183407200Y-64136779D01*
X183407200Y-64136779D02*
X183454819Y-64279636D01*
X183454819Y-64279636D02*
X183454819Y-64517731D01*
X183169104Y-63565350D02*
X183169104Y-63089160D01*
X183454819Y-63660588D02*
X182454819Y-63327255D01*
X182454819Y-63327255D02*
X183454819Y-62993922D01*
X152944761Y-85294819D02*
X152611428Y-84818628D01*
X152373333Y-85294819D02*
X152373333Y-84294819D01*
X152373333Y-84294819D02*
X152754285Y-84294819D01*
X152754285Y-84294819D02*
X152849523Y-84342438D01*
X152849523Y-84342438D02*
X152897142Y-84390057D01*
X152897142Y-84390057D02*
X152944761Y-84485295D01*
X152944761Y-84485295D02*
X152944761Y-84628152D01*
X152944761Y-84628152D02*
X152897142Y-84723390D01*
X152897142Y-84723390D02*
X152849523Y-84771009D01*
X152849523Y-84771009D02*
X152754285Y-84818628D01*
X152754285Y-84818628D02*
X152373333Y-84818628D01*
X153230476Y-84294819D02*
X153563809Y-85294819D01*
X153563809Y-85294819D02*
X153897142Y-84294819D01*
X154754285Y-85294819D02*
X154182857Y-85294819D01*
X154468571Y-85294819D02*
X154468571Y-84294819D01*
X154468571Y-84294819D02*
X154373333Y-84437676D01*
X154373333Y-84437676D02*
X154278095Y-84532914D01*
X154278095Y-84532914D02*
X154182857Y-84580533D01*
X141333333Y-88954819D02*
X141000000Y-88478628D01*
X140761905Y-88954819D02*
X140761905Y-87954819D01*
X140761905Y-87954819D02*
X141142857Y-87954819D01*
X141142857Y-87954819D02*
X141238095Y-88002438D01*
X141238095Y-88002438D02*
X141285714Y-88050057D01*
X141285714Y-88050057D02*
X141333333Y-88145295D01*
X141333333Y-88145295D02*
X141333333Y-88288152D01*
X141333333Y-88288152D02*
X141285714Y-88383390D01*
X141285714Y-88383390D02*
X141238095Y-88431009D01*
X141238095Y-88431009D02*
X141142857Y-88478628D01*
X141142857Y-88478628D02*
X140761905Y-88478628D01*
X142285714Y-88954819D02*
X141714286Y-88954819D01*
X142000000Y-88954819D02*
X142000000Y-87954819D01*
X142000000Y-87954819D02*
X141904762Y-88097676D01*
X141904762Y-88097676D02*
X141809524Y-88192914D01*
X141809524Y-88192914D02*
X141714286Y-88240533D01*
X196454819Y-147519523D02*
X197169104Y-147519523D01*
X197169104Y-147519523D02*
X197311961Y-147567142D01*
X197311961Y-147567142D02*
X197407200Y-147662380D01*
X197407200Y-147662380D02*
X197454819Y-147805237D01*
X197454819Y-147805237D02*
X197454819Y-147900475D01*
X197454819Y-146519523D02*
X197454819Y-147090951D01*
X197454819Y-146805237D02*
X196454819Y-146805237D01*
X196454819Y-146805237D02*
X196597676Y-146900475D01*
X196597676Y-146900475D02*
X196692914Y-146995713D01*
X196692914Y-146995713D02*
X196740533Y-147090951D01*
X197454819Y-145567142D02*
X197454819Y-146138570D01*
X197454819Y-145852856D02*
X196454819Y-145852856D01*
X196454819Y-145852856D02*
X196597676Y-145948094D01*
X196597676Y-145948094D02*
X196692914Y-146043332D01*
X196692914Y-146043332D02*
X196740533Y-146138570D01*
X124454819Y-54083333D02*
X125169104Y-54083333D01*
X125169104Y-54083333D02*
X125311961Y-54130952D01*
X125311961Y-54130952D02*
X125407200Y-54226190D01*
X125407200Y-54226190D02*
X125454819Y-54369047D01*
X125454819Y-54369047D02*
X125454819Y-54464285D01*
X125454819Y-53083333D02*
X125454819Y-53654761D01*
X125454819Y-53369047D02*
X124454819Y-53369047D01*
X124454819Y-53369047D02*
X124597676Y-53464285D01*
X124597676Y-53464285D02*
X124692914Y-53559523D01*
X124692914Y-53559523D02*
X124740533Y-53654761D01*
X173333333Y-115749580D02*
X173285714Y-115797200D01*
X173285714Y-115797200D02*
X173142857Y-115844819D01*
X173142857Y-115844819D02*
X173047619Y-115844819D01*
X173047619Y-115844819D02*
X172904762Y-115797200D01*
X172904762Y-115797200D02*
X172809524Y-115701961D01*
X172809524Y-115701961D02*
X172761905Y-115606723D01*
X172761905Y-115606723D02*
X172714286Y-115416247D01*
X172714286Y-115416247D02*
X172714286Y-115273390D01*
X172714286Y-115273390D02*
X172761905Y-115082914D01*
X172761905Y-115082914D02*
X172809524Y-114987676D01*
X172809524Y-114987676D02*
X172904762Y-114892438D01*
X172904762Y-114892438D02*
X173047619Y-114844819D01*
X173047619Y-114844819D02*
X173142857Y-114844819D01*
X173142857Y-114844819D02*
X173285714Y-114892438D01*
X173285714Y-114892438D02*
X173333333Y-114940057D01*
X174190476Y-115178152D02*
X174190476Y-115844819D01*
X173952381Y-114797200D02*
X173714286Y-115511485D01*
X173714286Y-115511485D02*
X174333333Y-115511485D01*
X148454819Y-147043333D02*
X149169104Y-147043333D01*
X149169104Y-147043333D02*
X149311961Y-147090952D01*
X149311961Y-147090952D02*
X149407200Y-147186190D01*
X149407200Y-147186190D02*
X149454819Y-147329047D01*
X149454819Y-147329047D02*
X149454819Y-147424285D01*
X148883390Y-146424285D02*
X148835771Y-146519523D01*
X148835771Y-146519523D02*
X148788152Y-146567142D01*
X148788152Y-146567142D02*
X148692914Y-146614761D01*
X148692914Y-146614761D02*
X148645295Y-146614761D01*
X148645295Y-146614761D02*
X148550057Y-146567142D01*
X148550057Y-146567142D02*
X148502438Y-146519523D01*
X148502438Y-146519523D02*
X148454819Y-146424285D01*
X148454819Y-146424285D02*
X148454819Y-146233809D01*
X148454819Y-146233809D02*
X148502438Y-146138571D01*
X148502438Y-146138571D02*
X148550057Y-146090952D01*
X148550057Y-146090952D02*
X148645295Y-146043333D01*
X148645295Y-146043333D02*
X148692914Y-146043333D01*
X148692914Y-146043333D02*
X148788152Y-146090952D01*
X148788152Y-146090952D02*
X148835771Y-146138571D01*
X148835771Y-146138571D02*
X148883390Y-146233809D01*
X148883390Y-146233809D02*
X148883390Y-146424285D01*
X148883390Y-146424285D02*
X148931009Y-146519523D01*
X148931009Y-146519523D02*
X148978628Y-146567142D01*
X148978628Y-146567142D02*
X149073866Y-146614761D01*
X149073866Y-146614761D02*
X149264342Y-146614761D01*
X149264342Y-146614761D02*
X149359580Y-146567142D01*
X149359580Y-146567142D02*
X149407200Y-146519523D01*
X149407200Y-146519523D02*
X149454819Y-146424285D01*
X149454819Y-146424285D02*
X149454819Y-146233809D01*
X149454819Y-146233809D02*
X149407200Y-146138571D01*
X149407200Y-146138571D02*
X149359580Y-146090952D01*
X149359580Y-146090952D02*
X149264342Y-146043333D01*
X149264342Y-146043333D02*
X149073866Y-146043333D01*
X149073866Y-146043333D02*
X148978628Y-146090952D01*
X148978628Y-146090952D02*
X148931009Y-146138571D01*
X148931009Y-146138571D02*
X148883390Y-146233809D01*
X181054819Y-51933333D02*
X181769104Y-51933333D01*
X181769104Y-51933333D02*
X181911961Y-51980952D01*
X181911961Y-51980952D02*
X182007200Y-52076190D01*
X182007200Y-52076190D02*
X182054819Y-52219047D01*
X182054819Y-52219047D02*
X182054819Y-52314285D01*
X181054819Y-51552380D02*
X181054819Y-50933333D01*
X181054819Y-50933333D02*
X181435771Y-51266666D01*
X181435771Y-51266666D02*
X181435771Y-51123809D01*
X181435771Y-51123809D02*
X181483390Y-51028571D01*
X181483390Y-51028571D02*
X181531009Y-50980952D01*
X181531009Y-50980952D02*
X181626247Y-50933333D01*
X181626247Y-50933333D02*
X181864342Y-50933333D01*
X181864342Y-50933333D02*
X181959580Y-50980952D01*
X181959580Y-50980952D02*
X182007200Y-51028571D01*
X182007200Y-51028571D02*
X182054819Y-51123809D01*
X182054819Y-51123809D02*
X182054819Y-51409523D01*
X182054819Y-51409523D02*
X182007200Y-51504761D01*
X182007200Y-51504761D02*
X181959580Y-51552380D01*
X125359580Y-116746666D02*
X125407200Y-116794285D01*
X125407200Y-116794285D02*
X125454819Y-116937142D01*
X125454819Y-116937142D02*
X125454819Y-117032380D01*
X125454819Y-117032380D02*
X125407200Y-117175237D01*
X125407200Y-117175237D02*
X125311961Y-117270475D01*
X125311961Y-117270475D02*
X125216723Y-117318094D01*
X125216723Y-117318094D02*
X125026247Y-117365713D01*
X125026247Y-117365713D02*
X124883390Y-117365713D01*
X124883390Y-117365713D02*
X124692914Y-117318094D01*
X124692914Y-117318094D02*
X124597676Y-117270475D01*
X124597676Y-117270475D02*
X124502438Y-117175237D01*
X124502438Y-117175237D02*
X124454819Y-117032380D01*
X124454819Y-117032380D02*
X124454819Y-116937142D01*
X124454819Y-116937142D02*
X124502438Y-116794285D01*
X124502438Y-116794285D02*
X124550057Y-116746666D01*
X125454819Y-115794285D02*
X125454819Y-116365713D01*
X125454819Y-116079999D02*
X124454819Y-116079999D01*
X124454819Y-116079999D02*
X124597676Y-116175237D01*
X124597676Y-116175237D02*
X124692914Y-116270475D01*
X124692914Y-116270475D02*
X124740533Y-116365713D01*
X115904761Y-125550057D02*
X115809523Y-125502438D01*
X115809523Y-125502438D02*
X115714285Y-125407200D01*
X115714285Y-125407200D02*
X115571428Y-125264342D01*
X115571428Y-125264342D02*
X115476190Y-125216723D01*
X115476190Y-125216723D02*
X115380952Y-125216723D01*
X115428571Y-125454819D02*
X115333333Y-125407200D01*
X115333333Y-125407200D02*
X115238095Y-125311961D01*
X115238095Y-125311961D02*
X115190476Y-125121485D01*
X115190476Y-125121485D02*
X115190476Y-124788152D01*
X115190476Y-124788152D02*
X115238095Y-124597676D01*
X115238095Y-124597676D02*
X115333333Y-124502438D01*
X115333333Y-124502438D02*
X115428571Y-124454819D01*
X115428571Y-124454819D02*
X115619047Y-124454819D01*
X115619047Y-124454819D02*
X115714285Y-124502438D01*
X115714285Y-124502438D02*
X115809523Y-124597676D01*
X115809523Y-124597676D02*
X115857142Y-124788152D01*
X115857142Y-124788152D02*
X115857142Y-125121485D01*
X115857142Y-125121485D02*
X115809523Y-125311961D01*
X115809523Y-125311961D02*
X115714285Y-125407200D01*
X115714285Y-125407200D02*
X115619047Y-125454819D01*
X115619047Y-125454819D02*
X115428571Y-125454819D01*
X116809523Y-125454819D02*
X116238095Y-125454819D01*
X116523809Y-125454819D02*
X116523809Y-124454819D01*
X116523809Y-124454819D02*
X116428571Y-124597676D01*
X116428571Y-124597676D02*
X116333333Y-124692914D01*
X116333333Y-124692914D02*
X116238095Y-124740533D01*
X115454819Y-114166666D02*
X114978628Y-114499999D01*
X115454819Y-114738094D02*
X114454819Y-114738094D01*
X114454819Y-114738094D02*
X114454819Y-114357142D01*
X114454819Y-114357142D02*
X114502438Y-114261904D01*
X114502438Y-114261904D02*
X114550057Y-114214285D01*
X114550057Y-114214285D02*
X114645295Y-114166666D01*
X114645295Y-114166666D02*
X114788152Y-114166666D01*
X114788152Y-114166666D02*
X114883390Y-114214285D01*
X114883390Y-114214285D02*
X114931009Y-114261904D01*
X114931009Y-114261904D02*
X114978628Y-114357142D01*
X114978628Y-114357142D02*
X114978628Y-114738094D01*
X114454819Y-113833332D02*
X114454819Y-113214285D01*
X114454819Y-113214285D02*
X114835771Y-113547618D01*
X114835771Y-113547618D02*
X114835771Y-113404761D01*
X114835771Y-113404761D02*
X114883390Y-113309523D01*
X114883390Y-113309523D02*
X114931009Y-113261904D01*
X114931009Y-113261904D02*
X115026247Y-113214285D01*
X115026247Y-113214285D02*
X115264342Y-113214285D01*
X115264342Y-113214285D02*
X115359580Y-113261904D01*
X115359580Y-113261904D02*
X115407200Y-113309523D01*
X115407200Y-113309523D02*
X115454819Y-113404761D01*
X115454819Y-113404761D02*
X115454819Y-113690475D01*
X115454819Y-113690475D02*
X115407200Y-113785713D01*
X115407200Y-113785713D02*
X115359580Y-113833332D01*
X131454819Y-114246666D02*
X130978628Y-114579999D01*
X131454819Y-114818094D02*
X130454819Y-114818094D01*
X130454819Y-114818094D02*
X130454819Y-114437142D01*
X130454819Y-114437142D02*
X130502438Y-114341904D01*
X130502438Y-114341904D02*
X130550057Y-114294285D01*
X130550057Y-114294285D02*
X130645295Y-114246666D01*
X130645295Y-114246666D02*
X130788152Y-114246666D01*
X130788152Y-114246666D02*
X130883390Y-114294285D01*
X130883390Y-114294285D02*
X130931009Y-114341904D01*
X130931009Y-114341904D02*
X130978628Y-114437142D01*
X130978628Y-114437142D02*
X130978628Y-114818094D01*
X130454819Y-113341904D02*
X130454819Y-113818094D01*
X130454819Y-113818094D02*
X130931009Y-113865713D01*
X130931009Y-113865713D02*
X130883390Y-113818094D01*
X130883390Y-113818094D02*
X130835771Y-113722856D01*
X130835771Y-113722856D02*
X130835771Y-113484761D01*
X130835771Y-113484761D02*
X130883390Y-113389523D01*
X130883390Y-113389523D02*
X130931009Y-113341904D01*
X130931009Y-113341904D02*
X131026247Y-113294285D01*
X131026247Y-113294285D02*
X131264342Y-113294285D01*
X131264342Y-113294285D02*
X131359580Y-113341904D01*
X131359580Y-113341904D02*
X131407200Y-113389523D01*
X131407200Y-113389523D02*
X131454819Y-113484761D01*
X131454819Y-113484761D02*
X131454819Y-113722856D01*
X131454819Y-113722856D02*
X131407200Y-113818094D01*
X131407200Y-113818094D02*
X131359580Y-113865713D01*
X120454819Y-114166666D02*
X119978628Y-114499999D01*
X120454819Y-114738094D02*
X119454819Y-114738094D01*
X119454819Y-114738094D02*
X119454819Y-114357142D01*
X119454819Y-114357142D02*
X119502438Y-114261904D01*
X119502438Y-114261904D02*
X119550057Y-114214285D01*
X119550057Y-114214285D02*
X119645295Y-114166666D01*
X119645295Y-114166666D02*
X119788152Y-114166666D01*
X119788152Y-114166666D02*
X119883390Y-114214285D01*
X119883390Y-114214285D02*
X119931009Y-114261904D01*
X119931009Y-114261904D02*
X119978628Y-114357142D01*
X119978628Y-114357142D02*
X119978628Y-114738094D01*
X119788152Y-113309523D02*
X120454819Y-113309523D01*
X119407200Y-113547618D02*
X120121485Y-113785713D01*
X120121485Y-113785713D02*
X120121485Y-113166666D01*
X179238095Y-148254819D02*
X179238095Y-147254819D01*
X179238095Y-147731009D02*
X179809523Y-147731009D01*
X179809523Y-148254819D02*
X179809523Y-147254819D01*
X180238095Y-147350057D02*
X180285714Y-147302438D01*
X180285714Y-147302438D02*
X180380952Y-147254819D01*
X180380952Y-147254819D02*
X180619047Y-147254819D01*
X180619047Y-147254819D02*
X180714285Y-147302438D01*
X180714285Y-147302438D02*
X180761904Y-147350057D01*
X180761904Y-147350057D02*
X180809523Y-147445295D01*
X180809523Y-147445295D02*
X180809523Y-147540533D01*
X180809523Y-147540533D02*
X180761904Y-147683390D01*
X180761904Y-147683390D02*
X180190476Y-148254819D01*
X180190476Y-148254819D02*
X180809523Y-148254819D01*
X141859580Y-116666666D02*
X141907200Y-116714285D01*
X141907200Y-116714285D02*
X141954819Y-116857142D01*
X141954819Y-116857142D02*
X141954819Y-116952380D01*
X141954819Y-116952380D02*
X141907200Y-117095237D01*
X141907200Y-117095237D02*
X141811961Y-117190475D01*
X141811961Y-117190475D02*
X141716723Y-117238094D01*
X141716723Y-117238094D02*
X141526247Y-117285713D01*
X141526247Y-117285713D02*
X141383390Y-117285713D01*
X141383390Y-117285713D02*
X141192914Y-117238094D01*
X141192914Y-117238094D02*
X141097676Y-117190475D01*
X141097676Y-117190475D02*
X141002438Y-117095237D01*
X141002438Y-117095237D02*
X140954819Y-116952380D01*
X140954819Y-116952380D02*
X140954819Y-116857142D01*
X140954819Y-116857142D02*
X141002438Y-116714285D01*
X141002438Y-116714285D02*
X141050057Y-116666666D01*
X141050057Y-116285713D02*
X141002438Y-116238094D01*
X141002438Y-116238094D02*
X140954819Y-116142856D01*
X140954819Y-116142856D02*
X140954819Y-115904761D01*
X140954819Y-115904761D02*
X141002438Y-115809523D01*
X141002438Y-115809523D02*
X141050057Y-115761904D01*
X141050057Y-115761904D02*
X141145295Y-115714285D01*
X141145295Y-115714285D02*
X141240533Y-115714285D01*
X141240533Y-115714285D02*
X141383390Y-115761904D01*
X141383390Y-115761904D02*
X141954819Y-116333332D01*
X141954819Y-116333332D02*
X141954819Y-115714285D01*
X132454819Y-147043333D02*
X133169104Y-147043333D01*
X133169104Y-147043333D02*
X133311961Y-147090952D01*
X133311961Y-147090952D02*
X133407200Y-147186190D01*
X133407200Y-147186190D02*
X133454819Y-147329047D01*
X133454819Y-147329047D02*
X133454819Y-147424285D01*
X132454819Y-146662380D02*
X132454819Y-145995714D01*
X132454819Y-145995714D02*
X133454819Y-146424285D01*
X161048095Y-108624819D02*
X161048095Y-109434342D01*
X161048095Y-109434342D02*
X161095714Y-109529580D01*
X161095714Y-109529580D02*
X161143333Y-109577200D01*
X161143333Y-109577200D02*
X161238571Y-109624819D01*
X161238571Y-109624819D02*
X161429047Y-109624819D01*
X161429047Y-109624819D02*
X161524285Y-109577200D01*
X161524285Y-109577200D02*
X161571904Y-109529580D01*
X161571904Y-109529580D02*
X161619523Y-109434342D01*
X161619523Y-109434342D02*
X161619523Y-108624819D01*
X162619523Y-109624819D02*
X162048095Y-109624819D01*
X162333809Y-109624819D02*
X162333809Y-108624819D01*
X162333809Y-108624819D02*
X162238571Y-108767676D01*
X162238571Y-108767676D02*
X162143333Y-108862914D01*
X162143333Y-108862914D02*
X162048095Y-108910533D01*
X104454819Y-54083333D02*
X105169104Y-54083333D01*
X105169104Y-54083333D02*
X105311961Y-54130952D01*
X105311961Y-54130952D02*
X105407200Y-54226190D01*
X105407200Y-54226190D02*
X105454819Y-54369047D01*
X105454819Y-54369047D02*
X105454819Y-54464285D01*
X104550057Y-53654761D02*
X104502438Y-53607142D01*
X104502438Y-53607142D02*
X104454819Y-53511904D01*
X104454819Y-53511904D02*
X104454819Y-53273809D01*
X104454819Y-53273809D02*
X104502438Y-53178571D01*
X104502438Y-53178571D02*
X104550057Y-53130952D01*
X104550057Y-53130952D02*
X104645295Y-53083333D01*
X104645295Y-53083333D02*
X104740533Y-53083333D01*
X104740533Y-53083333D02*
X104883390Y-53130952D01*
X104883390Y-53130952D02*
X105454819Y-53702380D01*
X105454819Y-53702380D02*
X105454819Y-53083333D01*
X164454819Y-147043333D02*
X165169104Y-147043333D01*
X165169104Y-147043333D02*
X165311961Y-147090952D01*
X165311961Y-147090952D02*
X165407200Y-147186190D01*
X165407200Y-147186190D02*
X165454819Y-147329047D01*
X165454819Y-147329047D02*
X165454819Y-147424285D01*
X165454819Y-146519523D02*
X165454819Y-146329047D01*
X165454819Y-146329047D02*
X165407200Y-146233809D01*
X165407200Y-146233809D02*
X165359580Y-146186190D01*
X165359580Y-146186190D02*
X165216723Y-146090952D01*
X165216723Y-146090952D02*
X165026247Y-146043333D01*
X165026247Y-146043333D02*
X164645295Y-146043333D01*
X164645295Y-146043333D02*
X164550057Y-146090952D01*
X164550057Y-146090952D02*
X164502438Y-146138571D01*
X164502438Y-146138571D02*
X164454819Y-146233809D01*
X164454819Y-146233809D02*
X164454819Y-146424285D01*
X164454819Y-146424285D02*
X164502438Y-146519523D01*
X164502438Y-146519523D02*
X164550057Y-146567142D01*
X164550057Y-146567142D02*
X164645295Y-146614761D01*
X164645295Y-146614761D02*
X164883390Y-146614761D01*
X164883390Y-146614761D02*
X164978628Y-146567142D01*
X164978628Y-146567142D02*
X165026247Y-146519523D01*
X165026247Y-146519523D02*
X165073866Y-146424285D01*
X165073866Y-146424285D02*
X165073866Y-146233809D01*
X165073866Y-146233809D02*
X165026247Y-146138571D01*
X165026247Y-146138571D02*
X164978628Y-146090952D01*
X164978628Y-146090952D02*
X164883390Y-146043333D01*
X196054819Y-52409523D02*
X196769104Y-52409523D01*
X196769104Y-52409523D02*
X196911961Y-52457142D01*
X196911961Y-52457142D02*
X197007200Y-52552380D01*
X197007200Y-52552380D02*
X197054819Y-52695237D01*
X197054819Y-52695237D02*
X197054819Y-52790475D01*
X197054819Y-51409523D02*
X197054819Y-51980951D01*
X197054819Y-51695237D02*
X196054819Y-51695237D01*
X196054819Y-51695237D02*
X196197676Y-51790475D01*
X196197676Y-51790475D02*
X196292914Y-51885713D01*
X196292914Y-51885713D02*
X196340533Y-51980951D01*
X196150057Y-51028570D02*
X196102438Y-50980951D01*
X196102438Y-50980951D02*
X196054819Y-50885713D01*
X196054819Y-50885713D02*
X196054819Y-50647618D01*
X196054819Y-50647618D02*
X196102438Y-50552380D01*
X196102438Y-50552380D02*
X196150057Y-50504761D01*
X196150057Y-50504761D02*
X196245295Y-50457142D01*
X196245295Y-50457142D02*
X196340533Y-50457142D01*
X196340533Y-50457142D02*
X196483390Y-50504761D01*
X196483390Y-50504761D02*
X197054819Y-51076189D01*
X197054819Y-51076189D02*
X197054819Y-50457142D01*
X180454819Y-147519523D02*
X181169104Y-147519523D01*
X181169104Y-147519523D02*
X181311961Y-147567142D01*
X181311961Y-147567142D02*
X181407200Y-147662380D01*
X181407200Y-147662380D02*
X181454819Y-147805237D01*
X181454819Y-147805237D02*
X181454819Y-147900475D01*
X181454819Y-146519523D02*
X181454819Y-147090951D01*
X181454819Y-146805237D02*
X180454819Y-146805237D01*
X180454819Y-146805237D02*
X180597676Y-146900475D01*
X180597676Y-146900475D02*
X180692914Y-146995713D01*
X180692914Y-146995713D02*
X180740533Y-147090951D01*
X180454819Y-145900475D02*
X180454819Y-145805237D01*
X180454819Y-145805237D02*
X180502438Y-145709999D01*
X180502438Y-145709999D02*
X180550057Y-145662380D01*
X180550057Y-145662380D02*
X180645295Y-145614761D01*
X180645295Y-145614761D02*
X180835771Y-145567142D01*
X180835771Y-145567142D02*
X181073866Y-145567142D01*
X181073866Y-145567142D02*
X181264342Y-145614761D01*
X181264342Y-145614761D02*
X181359580Y-145662380D01*
X181359580Y-145662380D02*
X181407200Y-145709999D01*
X181407200Y-145709999D02*
X181454819Y-145805237D01*
X181454819Y-145805237D02*
X181454819Y-145900475D01*
X181454819Y-145900475D02*
X181407200Y-145995713D01*
X181407200Y-145995713D02*
X181359580Y-146043332D01*
X181359580Y-146043332D02*
X181264342Y-146090951D01*
X181264342Y-146090951D02*
X181073866Y-146138570D01*
X181073866Y-146138570D02*
X180835771Y-146138570D01*
X180835771Y-146138570D02*
X180645295Y-146090951D01*
X180645295Y-146090951D02*
X180550057Y-146043332D01*
X180550057Y-146043332D02*
X180502438Y-145995713D01*
X180502438Y-145995713D02*
X180454819Y-145900475D01*
X136954819Y-114166666D02*
X136478628Y-114499999D01*
X136954819Y-114738094D02*
X135954819Y-114738094D01*
X135954819Y-114738094D02*
X135954819Y-114357142D01*
X135954819Y-114357142D02*
X136002438Y-114261904D01*
X136002438Y-114261904D02*
X136050057Y-114214285D01*
X136050057Y-114214285D02*
X136145295Y-114166666D01*
X136145295Y-114166666D02*
X136288152Y-114166666D01*
X136288152Y-114166666D02*
X136383390Y-114214285D01*
X136383390Y-114214285D02*
X136431009Y-114261904D01*
X136431009Y-114261904D02*
X136478628Y-114357142D01*
X136478628Y-114357142D02*
X136478628Y-114738094D01*
X135954819Y-113309523D02*
X135954819Y-113499999D01*
X135954819Y-113499999D02*
X136002438Y-113595237D01*
X136002438Y-113595237D02*
X136050057Y-113642856D01*
X136050057Y-113642856D02*
X136192914Y-113738094D01*
X136192914Y-113738094D02*
X136383390Y-113785713D01*
X136383390Y-113785713D02*
X136764342Y-113785713D01*
X136764342Y-113785713D02*
X136859580Y-113738094D01*
X136859580Y-113738094D02*
X136907200Y-113690475D01*
X136907200Y-113690475D02*
X136954819Y-113595237D01*
X136954819Y-113595237D02*
X136954819Y-113404761D01*
X136954819Y-113404761D02*
X136907200Y-113309523D01*
X136907200Y-113309523D02*
X136859580Y-113261904D01*
X136859580Y-113261904D02*
X136764342Y-113214285D01*
X136764342Y-113214285D02*
X136526247Y-113214285D01*
X136526247Y-113214285D02*
X136431009Y-113261904D01*
X136431009Y-113261904D02*
X136383390Y-113309523D01*
X136383390Y-113309523D02*
X136335771Y-113404761D01*
X136335771Y-113404761D02*
X136335771Y-113595237D01*
X136335771Y-113595237D02*
X136383390Y-113690475D01*
X136383390Y-113690475D02*
X136431009Y-113738094D01*
X136431009Y-113738094D02*
X136526247Y-113785713D01*
X166413333Y-88954819D02*
X166080000Y-88478628D01*
X165841905Y-88954819D02*
X165841905Y-87954819D01*
X165841905Y-87954819D02*
X166222857Y-87954819D01*
X166222857Y-87954819D02*
X166318095Y-88002438D01*
X166318095Y-88002438D02*
X166365714Y-88050057D01*
X166365714Y-88050057D02*
X166413333Y-88145295D01*
X166413333Y-88145295D02*
X166413333Y-88288152D01*
X166413333Y-88288152D02*
X166365714Y-88383390D01*
X166365714Y-88383390D02*
X166318095Y-88431009D01*
X166318095Y-88431009D02*
X166222857Y-88478628D01*
X166222857Y-88478628D02*
X165841905Y-88478628D01*
X166794286Y-88050057D02*
X166841905Y-88002438D01*
X166841905Y-88002438D02*
X166937143Y-87954819D01*
X166937143Y-87954819D02*
X167175238Y-87954819D01*
X167175238Y-87954819D02*
X167270476Y-88002438D01*
X167270476Y-88002438D02*
X167318095Y-88050057D01*
X167318095Y-88050057D02*
X167365714Y-88145295D01*
X167365714Y-88145295D02*
X167365714Y-88240533D01*
X167365714Y-88240533D02*
X167318095Y-88383390D01*
X167318095Y-88383390D02*
X166746667Y-88954819D01*
X166746667Y-88954819D02*
X167365714Y-88954819D01*
X173333333Y-111859580D02*
X173285714Y-111907200D01*
X173285714Y-111907200D02*
X173142857Y-111954819D01*
X173142857Y-111954819D02*
X173047619Y-111954819D01*
X173047619Y-111954819D02*
X172904762Y-111907200D01*
X172904762Y-111907200D02*
X172809524Y-111811961D01*
X172809524Y-111811961D02*
X172761905Y-111716723D01*
X172761905Y-111716723D02*
X172714286Y-111526247D01*
X172714286Y-111526247D02*
X172714286Y-111383390D01*
X172714286Y-111383390D02*
X172761905Y-111192914D01*
X172761905Y-111192914D02*
X172809524Y-111097676D01*
X172809524Y-111097676D02*
X172904762Y-111002438D01*
X172904762Y-111002438D02*
X173047619Y-110954819D01*
X173047619Y-110954819D02*
X173142857Y-110954819D01*
X173142857Y-110954819D02*
X173285714Y-111002438D01*
X173285714Y-111002438D02*
X173333333Y-111050057D01*
X173666667Y-110954819D02*
X174285714Y-110954819D01*
X174285714Y-110954819D02*
X173952381Y-111335771D01*
X173952381Y-111335771D02*
X174095238Y-111335771D01*
X174095238Y-111335771D02*
X174190476Y-111383390D01*
X174190476Y-111383390D02*
X174238095Y-111431009D01*
X174238095Y-111431009D02*
X174285714Y-111526247D01*
X174285714Y-111526247D02*
X174285714Y-111764342D01*
X174285714Y-111764342D02*
X174238095Y-111859580D01*
X174238095Y-111859580D02*
X174190476Y-111907200D01*
X174190476Y-111907200D02*
X174095238Y-111954819D01*
X174095238Y-111954819D02*
X173809524Y-111954819D01*
X173809524Y-111954819D02*
X173714286Y-111907200D01*
X173714286Y-111907200D02*
X173666667Y-111859580D01*
X134904761Y-126050057D02*
X134809523Y-126002438D01*
X134809523Y-126002438D02*
X134714285Y-125907200D01*
X134714285Y-125907200D02*
X134571428Y-125764342D01*
X134571428Y-125764342D02*
X134476190Y-125716723D01*
X134476190Y-125716723D02*
X134380952Y-125716723D01*
X134428571Y-125954819D02*
X134333333Y-125907200D01*
X134333333Y-125907200D02*
X134238095Y-125811961D01*
X134238095Y-125811961D02*
X134190476Y-125621485D01*
X134190476Y-125621485D02*
X134190476Y-125288152D01*
X134190476Y-125288152D02*
X134238095Y-125097676D01*
X134238095Y-125097676D02*
X134333333Y-125002438D01*
X134333333Y-125002438D02*
X134428571Y-124954819D01*
X134428571Y-124954819D02*
X134619047Y-124954819D01*
X134619047Y-124954819D02*
X134714285Y-125002438D01*
X134714285Y-125002438D02*
X134809523Y-125097676D01*
X134809523Y-125097676D02*
X134857142Y-125288152D01*
X134857142Y-125288152D02*
X134857142Y-125621485D01*
X134857142Y-125621485D02*
X134809523Y-125811961D01*
X134809523Y-125811961D02*
X134714285Y-125907200D01*
X134714285Y-125907200D02*
X134619047Y-125954819D01*
X134619047Y-125954819D02*
X134428571Y-125954819D01*
X135238095Y-125050057D02*
X135285714Y-125002438D01*
X135285714Y-125002438D02*
X135380952Y-124954819D01*
X135380952Y-124954819D02*
X135619047Y-124954819D01*
X135619047Y-124954819D02*
X135714285Y-125002438D01*
X135714285Y-125002438D02*
X135761904Y-125050057D01*
X135761904Y-125050057D02*
X135809523Y-125145295D01*
X135809523Y-125145295D02*
X135809523Y-125240533D01*
X135809523Y-125240533D02*
X135761904Y-125383390D01*
X135761904Y-125383390D02*
X135190476Y-125954819D01*
X135190476Y-125954819D02*
X135809523Y-125954819D01*
X116454819Y-147043333D02*
X117169104Y-147043333D01*
X117169104Y-147043333D02*
X117311961Y-147090952D01*
X117311961Y-147090952D02*
X117407200Y-147186190D01*
X117407200Y-147186190D02*
X117454819Y-147329047D01*
X117454819Y-147329047D02*
X117454819Y-147424285D01*
X116454819Y-146138571D02*
X116454819Y-146329047D01*
X116454819Y-146329047D02*
X116502438Y-146424285D01*
X116502438Y-146424285D02*
X116550057Y-146471904D01*
X116550057Y-146471904D02*
X116692914Y-146567142D01*
X116692914Y-146567142D02*
X116883390Y-146614761D01*
X116883390Y-146614761D02*
X117264342Y-146614761D01*
X117264342Y-146614761D02*
X117359580Y-146567142D01*
X117359580Y-146567142D02*
X117407200Y-146519523D01*
X117407200Y-146519523D02*
X117454819Y-146424285D01*
X117454819Y-146424285D02*
X117454819Y-146233809D01*
X117454819Y-146233809D02*
X117407200Y-146138571D01*
X117407200Y-146138571D02*
X117359580Y-146090952D01*
X117359580Y-146090952D02*
X117264342Y-146043333D01*
X117264342Y-146043333D02*
X117026247Y-146043333D01*
X117026247Y-146043333D02*
X116931009Y-146090952D01*
X116931009Y-146090952D02*
X116883390Y-146138571D01*
X116883390Y-146138571D02*
X116835771Y-146233809D01*
X116835771Y-146233809D02*
X116835771Y-146424285D01*
X116835771Y-146424285D02*
X116883390Y-146519523D01*
X116883390Y-146519523D02*
X116931009Y-146567142D01*
X116931009Y-146567142D02*
X117026247Y-146614761D01*
D11*
X148655000Y-85970000D02*
X148655000Y-91040000D01*
X148655000Y-85970000D02*
X158425000Y-85970000D01*
X148655000Y-91040000D02*
X158425000Y-91040000D01*
X158425000Y-85970000D02*
X158425000Y-91040000D01*
X137460000Y-88500000D02*
X138230000Y-88500000D01*
X138230000Y-87130000D02*
X138230000Y-89870000D01*
X138230000Y-89870000D02*
X144770000Y-89870000D01*
X144770000Y-87130000D02*
X138230000Y-87130000D01*
X144770000Y-89870000D02*
X144770000Y-87130000D01*
X145540000Y-88500000D02*
X144770000Y-88500000D01*
X189750000Y-142710000D02*
X190250000Y-142710000D01*
X190000000Y-143210000D02*
X189750000Y-142710000D01*
X190250000Y-142710000D02*
X190000000Y-143210000D01*
X125890000Y-53190000D02*
X125890000Y-56910000D01*
X125890000Y-55000000D02*
X126290000Y-55000000D01*
X125890000Y-56000000D02*
X126290000Y-56000000D01*
X125890000Y-56910000D02*
X142610000Y-56910000D01*
X126290000Y-53590000D02*
X126290000Y-56510000D01*
X126290000Y-56510000D02*
X142210000Y-56510000D01*
X128150000Y-53990000D02*
X128150000Y-53590000D01*
X128250000Y-53590000D02*
X128250000Y-53990000D01*
X128350000Y-53590000D02*
X128350000Y-53990000D01*
X128350000Y-53990000D02*
X128150000Y-53990000D01*
X129650000Y-53990000D02*
X129650000Y-53590000D01*
X129750000Y-53590000D02*
X129750000Y-53990000D01*
X129850000Y-53590000D02*
X129850000Y-53990000D01*
X129850000Y-53990000D02*
X129650000Y-53990000D01*
X131150000Y-53990000D02*
X131150000Y-53590000D01*
X131250000Y-53590000D02*
X131250000Y-53990000D01*
X131350000Y-53590000D02*
X131350000Y-53990000D01*
X131350000Y-53990000D02*
X131150000Y-53990000D01*
X132650000Y-53990000D02*
X132650000Y-53590000D01*
X132750000Y-53590000D02*
X132750000Y-53990000D01*
X132850000Y-53590000D02*
X132850000Y-53990000D01*
X132850000Y-53990000D02*
X132650000Y-53990000D01*
X134150000Y-53990000D02*
X134150000Y-53590000D01*
X134250000Y-53590000D02*
X134250000Y-53990000D01*
X134350000Y-53590000D02*
X134350000Y-53990000D01*
X134350000Y-53990000D02*
X134150000Y-53990000D01*
X135650000Y-53990000D02*
X135650000Y-53590000D01*
X135750000Y-53590000D02*
X135750000Y-53990000D01*
X135850000Y-53590000D02*
X135850000Y-53990000D01*
X135850000Y-53990000D02*
X135650000Y-53990000D01*
X137150000Y-53990000D02*
X137150000Y-53590000D01*
X137250000Y-53590000D02*
X137250000Y-53990000D01*
X137350000Y-53590000D02*
X137350000Y-53990000D01*
X137350000Y-53990000D02*
X137150000Y-53990000D01*
X138650000Y-53990000D02*
X138650000Y-53590000D01*
X138750000Y-53590000D02*
X138750000Y-53990000D01*
X138850000Y-53590000D02*
X138850000Y-53990000D01*
X138850000Y-53990000D02*
X138650000Y-53990000D01*
X140150000Y-53990000D02*
X140150000Y-53590000D01*
X140250000Y-53590000D02*
X140250000Y-53990000D01*
X140350000Y-53590000D02*
X140350000Y-53990000D01*
X140350000Y-53990000D02*
X140150000Y-53990000D01*
X141300000Y-56910000D02*
X141300000Y-57110000D01*
X141300000Y-57010000D02*
X141600000Y-57010000D01*
X141300000Y-57110000D02*
X141600000Y-57110000D01*
X141600000Y-57110000D02*
X141600000Y-56910000D01*
X142010000Y-57110000D02*
X142810000Y-57110000D01*
X142210000Y-53590000D02*
X126290000Y-53590000D01*
X142210000Y-56510000D02*
X142210000Y-53590000D01*
X142610000Y-53190000D02*
X125890000Y-53190000D01*
X142610000Y-55000000D02*
X142210000Y-55000000D01*
X142610000Y-56000000D02*
X142210000Y-56000000D01*
X142610000Y-56910000D02*
X142610000Y-53190000D01*
X142810000Y-57110000D02*
X142810000Y-56310000D01*
X171230000Y-114320000D02*
X171230000Y-114335000D01*
X171230000Y-114320000D02*
X175770000Y-114320000D01*
X171230000Y-116445000D02*
X171230000Y-116460000D01*
X171230000Y-116460000D02*
X175770000Y-116460000D01*
X175770000Y-114320000D02*
X175770000Y-114335000D01*
X175770000Y-116445000D02*
X175770000Y-116460000D01*
X141750000Y-142710000D02*
X142250000Y-142710000D01*
X142000000Y-143210000D02*
X141750000Y-142710000D01*
X142250000Y-142710000D02*
X142000000Y-143210000D01*
X170440000Y-50090000D02*
X170440000Y-57910000D01*
X170440000Y-56310000D02*
X171360000Y-56310000D01*
X170440000Y-57910000D02*
X171360000Y-57910000D01*
X171200000Y-52350000D02*
X172200000Y-52350000D01*
X171200000Y-53950000D02*
X171200000Y-52350000D01*
X171360000Y-56310000D02*
X171640000Y-56310000D01*
X171360000Y-57910000D02*
X171360000Y-56310000D01*
X172200000Y-52350000D02*
X172200000Y-53950000D01*
X172200000Y-53950000D02*
X171200000Y-53950000D01*
X173000000Y-54450000D02*
X173000000Y-50090000D01*
X178000000Y-50090000D02*
X178000000Y-54450000D01*
X178000000Y-54450000D02*
X173000000Y-54450000D01*
X178800000Y-52350000D02*
X178800000Y-50090000D01*
X178800000Y-52350000D02*
X178800000Y-53950000D01*
X178800000Y-53950000D02*
X179800000Y-53950000D01*
X179300000Y-52350000D02*
X179300000Y-50090000D01*
X179360000Y-56310000D02*
X179360000Y-57525000D01*
X179360000Y-56310000D02*
X179640000Y-56310000D01*
X179640000Y-56310000D02*
X179640000Y-57910000D01*
X179640000Y-57910000D02*
X180560000Y-57910000D01*
X179800000Y-52350000D02*
X178800000Y-52350000D01*
X179800000Y-53950000D02*
X179800000Y-52350000D01*
X180560000Y-50090000D02*
X170440000Y-50090000D01*
X180560000Y-56310000D02*
X179640000Y-56310000D01*
X180560000Y-57910000D02*
X180560000Y-50090000D01*
X123930000Y-114310000D02*
X123945000Y-114310000D01*
X123930000Y-118850000D02*
X123930000Y-114310000D01*
X123930000Y-118850000D02*
X123945000Y-118850000D01*
X126055000Y-114310000D02*
X126070000Y-114310000D01*
X126055000Y-118850000D02*
X126070000Y-118850000D01*
X126070000Y-118850000D02*
X126070000Y-114310000D01*
X118200000Y-128350000D02*
X121800000Y-128350000D01*
X118161522Y-128338478D02*
G75*
G02*
X120000000Y-123899999I1838478J1838478D01*
G01*
X120000000Y-123900000D02*
G75*
G02*
X121838478Y-128338478I0J-2600000D01*
G01*
X113630000Y-110730000D02*
X113630000Y-117270000D01*
X113630000Y-117270000D02*
X116370000Y-117270000D01*
X115000000Y-109960000D02*
X115000000Y-110730000D01*
X115000000Y-118040000D02*
X115000000Y-117270000D01*
X116370000Y-110730000D02*
X113630000Y-110730000D01*
X116370000Y-117270000D02*
X116370000Y-110730000D01*
X129630000Y-110810000D02*
X129630000Y-117350000D01*
X129630000Y-117350000D02*
X132370000Y-117350000D01*
X131000000Y-110040000D02*
X131000000Y-110810000D01*
X131000000Y-118120000D02*
X131000000Y-117350000D01*
X132370000Y-110810000D02*
X129630000Y-110810000D01*
X132370000Y-117350000D02*
X132370000Y-110810000D01*
X118630000Y-110730000D02*
X118630000Y-117270000D01*
X118630000Y-117270000D02*
X121370000Y-117270000D01*
X120000000Y-109960000D02*
X120000000Y-110730000D01*
X120000000Y-118040000D02*
X120000000Y-117270000D01*
X121370000Y-110730000D02*
X118630000Y-110730000D01*
X121370000Y-117270000D02*
X121370000Y-110730000D01*
X140430000Y-114230000D02*
X140445000Y-114230000D01*
X140430000Y-118770000D02*
X140430000Y-114230000D01*
X140430000Y-118770000D02*
X140445000Y-118770000D01*
X142555000Y-114230000D02*
X142570000Y-114230000D01*
X142555000Y-118770000D02*
X142570000Y-118770000D01*
X142570000Y-118770000D02*
X142570000Y-114230000D01*
X125750000Y-142710000D02*
X126250000Y-142710000D01*
X126000000Y-143210000D02*
X125750000Y-142710000D01*
X126250000Y-142710000D02*
X126000000Y-143210000D01*
X159560000Y-110170000D02*
X159560000Y-120450000D01*
X159560000Y-120450000D02*
X164060000Y-120450000D01*
X160810000Y-110170000D02*
X159560000Y-110170000D01*
X164060000Y-110170000D02*
X162810000Y-110170000D01*
X164060000Y-120450000D02*
X164060000Y-110170000D01*
X156560000Y-110110000D02*
X167060000Y-110110000D01*
X167060000Y-120510000D01*
X156560000Y-120510000D01*
X156560000Y-110110000D01*
X162810000Y-110170000D02*
G75*
G02*
X160810000Y-110170000I-1000000J0D01*
G01*
X105890000Y-53190000D02*
X105890000Y-56910000D01*
X105890000Y-55000000D02*
X106290000Y-55000000D01*
X105890000Y-56000000D02*
X106290000Y-56000000D01*
X105890000Y-56910000D02*
X122610000Y-56910000D01*
X106290000Y-53590000D02*
X106290000Y-56510000D01*
X106290000Y-56510000D02*
X122210000Y-56510000D01*
X108150000Y-53990000D02*
X108150000Y-53590000D01*
X108250000Y-53590000D02*
X108250000Y-53990000D01*
X108350000Y-53590000D02*
X108350000Y-53990000D01*
X108350000Y-53990000D02*
X108150000Y-53990000D01*
X109650000Y-53990000D02*
X109650000Y-53590000D01*
X109750000Y-53590000D02*
X109750000Y-53990000D01*
X109850000Y-53590000D02*
X109850000Y-53990000D01*
X109850000Y-53990000D02*
X109650000Y-53990000D01*
X111150000Y-53990000D02*
X111150000Y-53590000D01*
X111250000Y-53590000D02*
X111250000Y-53990000D01*
X111350000Y-53590000D02*
X111350000Y-53990000D01*
X111350000Y-53990000D02*
X111150000Y-53990000D01*
X112650000Y-53990000D02*
X112650000Y-53590000D01*
X112750000Y-53590000D02*
X112750000Y-53990000D01*
X112850000Y-53590000D02*
X112850000Y-53990000D01*
X112850000Y-53990000D02*
X112650000Y-53990000D01*
X114150000Y-53990000D02*
X114150000Y-53590000D01*
X114250000Y-53590000D02*
X114250000Y-53990000D01*
X114350000Y-53590000D02*
X114350000Y-53990000D01*
X114350000Y-53990000D02*
X114150000Y-53990000D01*
X115650000Y-53990000D02*
X115650000Y-53590000D01*
X115750000Y-53590000D02*
X115750000Y-53990000D01*
X115850000Y-53590000D02*
X115850000Y-53990000D01*
X115850000Y-53990000D02*
X115650000Y-53990000D01*
X117150000Y-53990000D02*
X117150000Y-53590000D01*
X117250000Y-53590000D02*
X117250000Y-53990000D01*
X117350000Y-53590000D02*
X117350000Y-53990000D01*
X117350000Y-53990000D02*
X117150000Y-53990000D01*
X118650000Y-53990000D02*
X118650000Y-53590000D01*
X118750000Y-53590000D02*
X118750000Y-53990000D01*
X118850000Y-53590000D02*
X118850000Y-53990000D01*
X118850000Y-53990000D02*
X118650000Y-53990000D01*
X120150000Y-53990000D02*
X120150000Y-53590000D01*
X120250000Y-53590000D02*
X120250000Y-53990000D01*
X120350000Y-53590000D02*
X120350000Y-53990000D01*
X120350000Y-53990000D02*
X120150000Y-53990000D01*
X121300000Y-56910000D02*
X121300000Y-57110000D01*
X121300000Y-57010000D02*
X121600000Y-57010000D01*
X121300000Y-57110000D02*
X121600000Y-57110000D01*
X121600000Y-57110000D02*
X121600000Y-56910000D01*
X122010000Y-57110000D02*
X122810000Y-57110000D01*
X122210000Y-53590000D02*
X106290000Y-53590000D01*
X122210000Y-56510000D02*
X122210000Y-53590000D01*
X122610000Y-53190000D02*
X105890000Y-53190000D01*
X122610000Y-55000000D02*
X122210000Y-55000000D01*
X122610000Y-56000000D02*
X122210000Y-56000000D01*
X122610000Y-56910000D02*
X122610000Y-53190000D01*
X122810000Y-57110000D02*
X122810000Y-56310000D01*
X157750000Y-142710000D02*
X158250000Y-142710000D01*
X158000000Y-143210000D02*
X157750000Y-142710000D01*
X158250000Y-142710000D02*
X158000000Y-143210000D01*
X185440000Y-50090000D02*
X185440000Y-57910000D01*
X185440000Y-56310000D02*
X186360000Y-56310000D01*
X185440000Y-57910000D02*
X186360000Y-57910000D01*
X186200000Y-52350000D02*
X187200000Y-52350000D01*
X186200000Y-53950000D02*
X186200000Y-52350000D01*
X186360000Y-56310000D02*
X186640000Y-56310000D01*
X186360000Y-57910000D02*
X186360000Y-56310000D01*
X187200000Y-52350000D02*
X187200000Y-53950000D01*
X187200000Y-53950000D02*
X186200000Y-53950000D01*
X188000000Y-54450000D02*
X188000000Y-50090000D01*
X193000000Y-50090000D02*
X193000000Y-54450000D01*
X193000000Y-54450000D02*
X188000000Y-54450000D01*
X193800000Y-52350000D02*
X193800000Y-50090000D01*
X193800000Y-52350000D02*
X193800000Y-53950000D01*
X193800000Y-53950000D02*
X194800000Y-53950000D01*
X194300000Y-52350000D02*
X194300000Y-50090000D01*
X194360000Y-56310000D02*
X194360000Y-57525000D01*
X194360000Y-56310000D02*
X194640000Y-56310000D01*
X194640000Y-56310000D02*
X194640000Y-57910000D01*
X194640000Y-57910000D02*
X195560000Y-57910000D01*
X194800000Y-52350000D02*
X193800000Y-52350000D01*
X194800000Y-53950000D02*
X194800000Y-52350000D01*
X195560000Y-50090000D02*
X185440000Y-50090000D01*
X195560000Y-56310000D02*
X194640000Y-56310000D01*
X195560000Y-57910000D02*
X195560000Y-50090000D01*
X173750000Y-142710000D02*
X174250000Y-142710000D01*
X174000000Y-143210000D02*
X173750000Y-142710000D01*
X174250000Y-142710000D02*
X174000000Y-143210000D01*
X135130000Y-110730000D02*
X135130000Y-117270000D01*
X135130000Y-117270000D02*
X137870000Y-117270000D01*
X136500000Y-109960000D02*
X136500000Y-110730000D01*
X136500000Y-118040000D02*
X136500000Y-117270000D01*
X137870000Y-110730000D02*
X135130000Y-110730000D01*
X137870000Y-117270000D02*
X137870000Y-110730000D01*
X162540000Y-88500000D02*
X163310000Y-88500000D01*
X163310000Y-87130000D02*
X163310000Y-89870000D01*
X163310000Y-89870000D02*
X169850000Y-89870000D01*
X169850000Y-87130000D02*
X163310000Y-87130000D01*
X169850000Y-89870000D02*
X169850000Y-87130000D01*
X170620000Y-88500000D02*
X169850000Y-88500000D01*
X171230000Y-110430000D02*
X171230000Y-110445000D01*
X171230000Y-110430000D02*
X175770000Y-110430000D01*
X171230000Y-112555000D02*
X171230000Y-112570000D01*
X171230000Y-112570000D02*
X175770000Y-112570000D01*
X175770000Y-110430000D02*
X175770000Y-110445000D01*
X175770000Y-112555000D02*
X175770000Y-112570000D01*
X129200000Y-128350000D02*
X132800000Y-128350000D01*
X129161522Y-128338478D02*
G75*
G02*
X131000000Y-123899999I1838478J1838478D01*
G01*
X131000000Y-123900000D02*
G75*
G02*
X132838478Y-128338478I0J-2600000D01*
G01*
X109750000Y-142710000D02*
X110250000Y-142710000D01*
X110000000Y-143210000D02*
X109750000Y-142710000D01*
X110250000Y-142710000D02*
X110000000Y-143210000D01*
%LPC*%
D12*
X156080000Y-88500000D03*
X153540000Y-88500000D03*
X151000000Y-88500000D03*
D13*
X136420000Y-88500000D03*
D14*
X146580000Y-88500000D03*
D15*
X190000000Y-146930000D03*
D16*
X185620000Y-146930000D03*
X194380000Y-146930000D03*
D17*
X146900000Y-55000000D03*
D18*
X151700000Y-55000000D03*
X156500000Y-55000000D03*
X161300000Y-55000000D03*
X166100000Y-55000000D03*
D19*
X141000000Y-55500000D03*
D20*
X139500000Y-55500000D03*
X138000000Y-55500000D03*
X136500000Y-55500000D03*
X135000000Y-55500000D03*
X133500000Y-55500000D03*
X132000000Y-55500000D03*
X130500000Y-55500000D03*
X129000000Y-55500000D03*
X127500000Y-55500000D03*
D13*
X171000000Y-115390000D03*
X176000000Y-115390000D03*
D21*
X190000000Y-135000000D03*
X110000000Y-65000000D03*
D15*
X142000000Y-146930000D03*
D16*
X137620000Y-146930000D03*
X146380000Y-146930000D03*
D22*
X178500000Y-56450000D03*
D23*
X176500000Y-56450000D03*
X174500000Y-56450000D03*
X172500000Y-56450000D03*
D13*
X125000000Y-119080000D03*
X125000000Y-114080000D03*
D21*
X190000000Y-65000000D03*
D24*
X118730000Y-126500000D03*
D25*
X120000000Y-126500000D03*
X121270000Y-126500000D03*
D21*
X110000000Y-135000000D03*
D13*
X115000000Y-108920000D03*
D14*
X115000000Y-119080000D03*
D13*
X131000000Y-109000000D03*
D14*
X131000000Y-119160000D03*
D13*
X120000000Y-119080000D03*
D14*
X120000000Y-108920000D03*
D21*
X180000000Y-143600000D03*
D13*
X141500000Y-119000000D03*
X141500000Y-114000000D03*
D15*
X126000000Y-146930000D03*
D16*
X121620000Y-146930000D03*
X130380000Y-146930000D03*
D26*
X158000000Y-111500000D03*
D27*
X158000000Y-114040000D03*
X158000000Y-116580000D03*
X158000000Y-119120000D03*
X165620000Y-119120000D03*
X165620000Y-116580000D03*
X165620000Y-114040000D03*
X165620000Y-111500000D03*
D19*
X121000000Y-55500000D03*
D20*
X119500000Y-55500000D03*
X118000000Y-55500000D03*
X116500000Y-55500000D03*
X115000000Y-55500000D03*
X113500000Y-55500000D03*
X112000000Y-55500000D03*
X110500000Y-55500000D03*
X109000000Y-55500000D03*
X107500000Y-55500000D03*
D28*
X183000000Y-60800000D03*
D18*
X178200000Y-60800000D03*
X173400000Y-60800000D03*
D15*
X158000000Y-146930000D03*
D16*
X153620000Y-146930000D03*
X162380000Y-146930000D03*
D21*
X120000000Y-143600000D03*
D22*
X193500000Y-56450000D03*
D23*
X191500000Y-56450000D03*
X189500000Y-56450000D03*
X187500000Y-56450000D03*
D15*
X174000000Y-146930000D03*
D16*
X169620000Y-146930000D03*
X178380000Y-146930000D03*
D13*
X136500000Y-119080000D03*
D14*
X136500000Y-108920000D03*
D13*
X171660000Y-88500000D03*
D14*
X161500000Y-88500000D03*
D13*
X171000000Y-111500000D03*
X176000000Y-111500000D03*
D24*
X129730000Y-126500000D03*
D25*
X131000000Y-126500000D03*
X132270000Y-126500000D03*
D15*
X110000000Y-146930000D03*
D16*
X105620000Y-146930000D03*
X114380000Y-146930000D03*
%LPD*%
M02*
