G04 #@! TF.GenerationSoftware,KiCad,Pcbnew,9.0.0*
G04 #@! TF.CreationDate,2025-05-20T10:08:30-07:00*
G04 #@! TF.ProjectId,coil_tempeauture_interlock,636f696c-5f74-4656-9d70-656175747572,rev?*
G04 #@! TF.SameCoordinates,Original*
G04 #@! TF.FileFunction,Copper,L4,Bot*
G04 #@! TF.FilePolarity,Positive*
%FSLAX46Y46*%
G04 Gerber Fmt 4.6, Leading zero omitted, Abs format (unit mm)*
G04 Created by KiCad (PCBNEW 9.0.0) date 2025-05-20 10:08:30*
%MOMM*%
%LPD*%
G01*
G04 APERTURE LIST*
G04 Aperture macros list*
%AMRoundRect*
0 Rectangle with rounded corners*
0 $1 Rounding radius*
0 $2 $3 $4 $5 $6 $7 $8 $9 X,Y pos of 4 corners*
0 Add a 4 corners polygon primitive as box body*
4,1,4,$2,$3,$4,$5,$6,$7,$8,$9,$2,$3,0*
0 Add four circle primitives for the rounded corners*
1,1,$1+$1,$2,$3*
1,1,$1+$1,$4,$5*
1,1,$1+$1,$6,$7*
1,1,$1+$1,$8,$9*
0 Add four rect primitives between the rounded corners*
20,1,$1+$1,$2,$3,$4,$5,0*
20,1,$1+$1,$4,$5,$6,$7,0*
20,1,$1+$1,$6,$7,$8,$9,0*
20,1,$1+$1,$8,$9,$2,$3,0*%
G04 Aperture macros list end*
G04 #@! TA.AperFunction,ComponentPad*
%ADD10C,1.440000*%
G04 #@! TD*
G04 #@! TA.AperFunction,ComponentPad*
%ADD11C,1.600000*%
G04 #@! TD*
G04 #@! TA.AperFunction,ComponentPad*
%ADD12O,1.600000X1.600000*%
G04 #@! TD*
G04 #@! TA.AperFunction,SMDPad,CuDef*
%ADD13R,2.420000X5.080000*%
G04 #@! TD*
G04 #@! TA.AperFunction,SMDPad,CuDef*
%ADD14R,0.460000X0.950000*%
G04 #@! TD*
G04 #@! TA.AperFunction,ComponentPad*
%ADD15C,0.970000*%
G04 #@! TD*
G04 #@! TA.AperFunction,ComponentPad*
%ADD16RoundRect,0.249999X-1.025001X-1.025001X1.025001X-1.025001X1.025001X1.025001X-1.025001X1.025001X0*%
G04 #@! TD*
G04 #@! TA.AperFunction,ComponentPad*
%ADD17C,2.550000*%
G04 #@! TD*
G04 #@! TA.AperFunction,ComponentPad*
%ADD18RoundRect,0.250000X0.265000X0.615000X-0.265000X0.615000X-0.265000X-0.615000X0.265000X-0.615000X0*%
G04 #@! TD*
G04 #@! TA.AperFunction,ComponentPad*
%ADD19O,1.030000X1.730000*%
G04 #@! TD*
G04 #@! TA.AperFunction,ComponentPad*
%ADD20RoundRect,0.250000X0.350000X0.625000X-0.350000X0.625000X-0.350000X-0.625000X0.350000X-0.625000X0*%
G04 #@! TD*
G04 #@! TA.AperFunction,ComponentPad*
%ADD21O,1.200000X1.750000*%
G04 #@! TD*
G04 #@! TA.AperFunction,ComponentPad*
%ADD22R,1.050000X1.500000*%
G04 #@! TD*
G04 #@! TA.AperFunction,ComponentPad*
%ADD23O,1.050000X1.500000*%
G04 #@! TD*
G04 #@! TA.AperFunction,ComponentPad*
%ADD24RoundRect,0.250000X-0.950000X-0.550000X0.950000X-0.550000X0.950000X0.550000X-0.950000X0.550000X0*%
G04 #@! TD*
G04 #@! TA.AperFunction,ComponentPad*
%ADD25O,2.400000X1.600000*%
G04 #@! TD*
G04 #@! TA.AperFunction,ComponentPad*
%ADD26RoundRect,0.249999X1.025001X1.025001X-1.025001X1.025001X-1.025001X-1.025001X1.025001X-1.025001X0*%
G04 #@! TD*
G04 #@! TA.AperFunction,ViaPad*
%ADD27C,0.800000*%
G04 #@! TD*
G04 #@! TA.AperFunction,Conductor*
%ADD28C,0.250000*%
G04 #@! TD*
G04 #@! TA.AperFunction,Conductor*
%ADD29C,0.500000*%
G04 #@! TD*
G04 APERTURE END LIST*
D10*
X156080000Y-88500000D03*
X153540000Y-88500000D03*
X151000000Y-88500000D03*
D11*
X136420000Y-88500000D03*
D12*
X146580000Y-88500000D03*
D13*
X185620000Y-146930000D03*
X194380000Y-146930000D03*
D14*
X185620000Y-143940000D03*
X194380000Y-143940000D03*
D15*
X185620000Y-143490000D03*
X194380000Y-143490000D03*
D16*
X146900000Y-55000000D03*
D17*
X151700000Y-55000000D03*
X156500000Y-55000000D03*
X161300000Y-55000000D03*
X166100000Y-55000000D03*
D18*
X141000000Y-55500000D03*
D19*
X139500000Y-55500000D03*
X138000000Y-55500000D03*
X136500000Y-55500000D03*
X135000000Y-55500000D03*
X133500000Y-55500000D03*
X132000000Y-55500000D03*
X130500000Y-55500000D03*
X129000000Y-55500000D03*
X127500000Y-55500000D03*
D11*
X171000000Y-115390000D03*
X176000000Y-115390000D03*
D13*
X137620000Y-146930000D03*
X146380000Y-146930000D03*
D14*
X137620000Y-143940000D03*
X146380000Y-143940000D03*
D15*
X137620000Y-143490000D03*
X146380000Y-143490000D03*
D20*
X178500000Y-56450000D03*
D21*
X176500000Y-56450000D03*
X174500000Y-56450000D03*
X172500000Y-56450000D03*
D11*
X125000000Y-119080000D03*
X125000000Y-114080000D03*
D22*
X118730000Y-126500000D03*
D23*
X120000000Y-126500000D03*
X121270000Y-126500000D03*
D11*
X115000000Y-108920000D03*
D12*
X115000000Y-119080000D03*
D11*
X131000000Y-109000000D03*
D12*
X131000000Y-119160000D03*
D11*
X120000000Y-119080000D03*
D12*
X120000000Y-108920000D03*
D11*
X141500000Y-119000000D03*
X141500000Y-114000000D03*
D13*
X121620000Y-146930000D03*
X130380000Y-146930000D03*
D14*
X121620000Y-143940000D03*
X130380000Y-143940000D03*
D15*
X121620000Y-143490000D03*
X130380000Y-143490000D03*
D24*
X158000000Y-111500000D03*
D25*
X158000000Y-114040000D03*
X158000000Y-116580000D03*
X158000000Y-119120000D03*
X165620000Y-119120000D03*
X165620000Y-116580000D03*
X165620000Y-114040000D03*
X165620000Y-111500000D03*
D18*
X121000000Y-55500000D03*
D19*
X119500000Y-55500000D03*
X118000000Y-55500000D03*
X116500000Y-55500000D03*
X115000000Y-55500000D03*
X113500000Y-55500000D03*
X112000000Y-55500000D03*
X110500000Y-55500000D03*
X109000000Y-55500000D03*
X107500000Y-55500000D03*
D26*
X183000000Y-60800000D03*
D17*
X178200000Y-60800000D03*
X173400000Y-60800000D03*
D13*
X153620000Y-146930000D03*
X162380000Y-146930000D03*
D14*
X153620000Y-143940000D03*
X162380000Y-143940000D03*
D15*
X153620000Y-143490000D03*
X162380000Y-143490000D03*
D20*
X193500000Y-56450000D03*
D21*
X191500000Y-56450000D03*
X189500000Y-56450000D03*
X187500000Y-56450000D03*
D13*
X169620000Y-146930000D03*
X178380000Y-146930000D03*
D14*
X169620000Y-143940000D03*
X178380000Y-143940000D03*
D15*
X169620000Y-143490000D03*
X178380000Y-143490000D03*
D11*
X136500000Y-119080000D03*
D12*
X136500000Y-108920000D03*
D11*
X171660000Y-88500000D03*
D12*
X161500000Y-88500000D03*
D11*
X171000000Y-111500000D03*
X176000000Y-111500000D03*
D22*
X129730000Y-126500000D03*
D23*
X131000000Y-126500000D03*
X132270000Y-126500000D03*
D13*
X105620000Y-146930000D03*
X114380000Y-146930000D03*
D14*
X105620000Y-143940000D03*
X114380000Y-143940000D03*
D15*
X105620000Y-143490000D03*
X114380000Y-143490000D03*
D27*
X136500000Y-51000000D03*
X112000000Y-51000000D03*
X116500000Y-51000000D03*
X132000000Y-51000000D03*
X129000000Y-52500000D03*
X109000000Y-52500000D03*
X119500000Y-52500000D03*
X139500000Y-52500000D03*
D28*
X141500000Y-114000000D02*
X136500000Y-109000000D01*
X146620000Y-119120000D02*
X141500000Y-114000000D01*
X136500000Y-88580000D02*
X136420000Y-88500000D01*
X158000000Y-139110000D02*
X158000000Y-119120000D01*
D29*
X165500000Y-58000000D02*
X166100000Y-57400000D01*
D28*
X176000000Y-115390000D02*
X171144000Y-120246000D01*
D29*
X118000000Y-57500000D02*
X118500000Y-58000000D01*
D28*
X125000000Y-114080000D02*
X131340000Y-114080000D01*
X125000000Y-114080000D02*
X120000000Y-109080000D01*
X159126000Y-120246000D02*
X158000000Y-119120000D01*
D29*
X110500000Y-57500000D02*
X111000000Y-58000000D01*
X130500000Y-57500000D02*
X131000000Y-58000000D01*
X117500000Y-58000000D02*
X118000000Y-57500000D01*
X118500000Y-58000000D02*
X130000000Y-58000000D01*
X110500000Y-55500000D02*
X110500000Y-57500000D01*
D28*
X136500000Y-109000000D02*
X136500000Y-108920000D01*
D29*
X138000000Y-57500000D02*
X138500000Y-58000000D01*
X137500000Y-58000000D02*
X138000000Y-57500000D01*
D28*
X158000000Y-131870000D02*
X146380000Y-143490000D01*
D29*
X130500000Y-55500000D02*
X130500000Y-57500000D01*
D28*
X131340000Y-114080000D02*
X136500000Y-108920000D01*
D29*
X130000000Y-58000000D02*
X130500000Y-57500000D01*
D28*
X176000000Y-111500000D02*
X176000000Y-115390000D01*
D29*
X138000000Y-55500000D02*
X138000000Y-57500000D01*
D28*
X120000000Y-109080000D02*
X120000000Y-108920000D01*
D29*
X138500000Y-58000000D02*
X165500000Y-58000000D01*
D28*
X162380000Y-143490000D02*
X158000000Y-139110000D01*
D29*
X131000000Y-58000000D02*
X137500000Y-58000000D01*
D28*
X158000000Y-119120000D02*
X158000000Y-131870000D01*
D29*
X166100000Y-57400000D02*
X166100000Y-55000000D01*
D28*
X136420000Y-88500000D02*
X136420000Y-59080000D01*
X136500000Y-108920000D02*
X136500000Y-88580000D01*
D29*
X111000000Y-58000000D02*
X117500000Y-58000000D01*
D28*
X158000000Y-119120000D02*
X146620000Y-119120000D01*
D29*
X118000000Y-55500000D02*
X118000000Y-57500000D01*
D28*
X136420000Y-59080000D02*
X137500000Y-58000000D01*
X171144000Y-120246000D02*
X159126000Y-120246000D01*
D29*
X116500000Y-51000000D02*
X116500000Y-55500000D01*
X136500000Y-51000000D02*
X136500000Y-55500000D01*
X112000000Y-51000000D02*
X112000000Y-55500000D01*
X132000000Y-51000000D02*
X132000000Y-55500000D01*
X129000000Y-52500000D02*
X129000000Y-55500000D01*
X139500000Y-52500000D02*
X139500000Y-55500000D01*
X119500000Y-52500000D02*
X119500000Y-55500000D01*
X109000000Y-52500000D02*
X109000000Y-55500000D01*
D28*
X153540000Y-88500000D02*
X153540000Y-112120000D01*
X163080000Y-116580000D02*
X165620000Y-119120000D01*
X158000000Y-116580000D02*
X163080000Y-116580000D01*
X153540000Y-112120000D02*
X158000000Y-116580000D01*
M02*
