G04 #@! TF.GenerationSoftware,KiCad,Pcbnew,9.0.0*
G04 #@! TF.CreationDate,2025-05-20T10:08:30-07:00*
G04 #@! TF.ProjectId,coil_tempeauture_interlock,636f696c-5f74-4656-9d70-656175747572,rev?*
G04 #@! TF.SameCoordinates,Original*
G04 #@! TF.FileFunction,Copper,L1,Top*
G04 #@! TF.FilePolarity,Positive*
%FSLAX46Y46*%
G04 Gerber Fmt 4.6, Leading zero omitted, Abs format (unit mm)*
G04 Created by KiCad (PCBNEW 9.0.0) date 2025-05-20 10:08:30*
%MOMM*%
%LPD*%
G01*
G04 APERTURE LIST*
G04 Aperture macros list*
%AMRoundRect*
0 Rectangle with rounded corners*
0 $1 Rounding radius*
0 $2 $3 $4 $5 $6 $7 $8 $9 X,Y pos of 4 corners*
0 Add a 4 corners polygon primitive as box body*
4,1,4,$2,$3,$4,$5,$6,$7,$8,$9,$2,$3,0*
0 Add four circle primitives for the rounded corners*
1,1,$1+$1,$2,$3*
1,1,$1+$1,$4,$5*
1,1,$1+$1,$6,$7*
1,1,$1+$1,$8,$9*
0 Add four rect primitives between the rounded corners*
20,1,$1+$1,$2,$3,$4,$5,0*
20,1,$1+$1,$4,$5,$6,$7,0*
20,1,$1+$1,$6,$7,$8,$9,0*
20,1,$1+$1,$8,$9,$2,$3,0*%
G04 Aperture macros list end*
G04 #@! TA.AperFunction,Conductor*
%ADD10C,0.200000*%
G04 #@! TD*
G04 #@! TA.AperFunction,ComponentPad*
%ADD11C,1.440000*%
G04 #@! TD*
G04 #@! TA.AperFunction,ComponentPad*
%ADD12C,1.600000*%
G04 #@! TD*
G04 #@! TA.AperFunction,ComponentPad*
%ADD13O,1.600000X1.600000*%
G04 #@! TD*
G04 #@! TA.AperFunction,SMDPad,CuDef*
%ADD14R,2.290000X5.080000*%
G04 #@! TD*
G04 #@! TA.AperFunction,SMDPad,CuDef*
%ADD15R,2.420000X5.080000*%
G04 #@! TD*
G04 #@! TA.AperFunction,SMDPad,CuDef*
%ADD16R,0.460000X0.950000*%
G04 #@! TD*
G04 #@! TA.AperFunction,ComponentPad*
%ADD17C,0.970000*%
G04 #@! TD*
G04 #@! TA.AperFunction,ComponentPad*
%ADD18RoundRect,0.249999X-1.025001X-1.025001X1.025001X-1.025001X1.025001X1.025001X-1.025001X1.025001X0*%
G04 #@! TD*
G04 #@! TA.AperFunction,ComponentPad*
%ADD19C,2.550000*%
G04 #@! TD*
G04 #@! TA.AperFunction,ComponentPad*
%ADD20RoundRect,0.250000X0.265000X0.615000X-0.265000X0.615000X-0.265000X-0.615000X0.265000X-0.615000X0*%
G04 #@! TD*
G04 #@! TA.AperFunction,ComponentPad*
%ADD21O,1.030000X1.730000*%
G04 #@! TD*
G04 #@! TA.AperFunction,ComponentPad*
%ADD22RoundRect,0.250000X0.350000X0.625000X-0.350000X0.625000X-0.350000X-0.625000X0.350000X-0.625000X0*%
G04 #@! TD*
G04 #@! TA.AperFunction,ComponentPad*
%ADD23O,1.200000X1.750000*%
G04 #@! TD*
G04 #@! TA.AperFunction,ComponentPad*
%ADD24R,1.050000X1.500000*%
G04 #@! TD*
G04 #@! TA.AperFunction,ComponentPad*
%ADD25O,1.050000X1.500000*%
G04 #@! TD*
G04 #@! TA.AperFunction,ComponentPad*
%ADD26RoundRect,0.250000X-0.950000X-0.550000X0.950000X-0.550000X0.950000X0.550000X-0.950000X0.550000X0*%
G04 #@! TD*
G04 #@! TA.AperFunction,ComponentPad*
%ADD27O,2.400000X1.600000*%
G04 #@! TD*
G04 #@! TA.AperFunction,ComponentPad*
%ADD28RoundRect,0.249999X1.025001X1.025001X-1.025001X1.025001X-1.025001X-1.025001X1.025001X-1.025001X0*%
G04 #@! TD*
G04 #@! TA.AperFunction,ViaPad*
%ADD29C,0.800000*%
G04 #@! TD*
G04 #@! TA.AperFunction,Conductor*
%ADD30C,0.250000*%
G04 #@! TD*
G04 #@! TA.AperFunction,Conductor*
%ADD31C,0.500000*%
G04 #@! TD*
G04 APERTURE END LIST*
D10*
X115000000Y-109000000D02*
X115000000Y-108920000D01*
D11*
X156080000Y-88500000D03*
X153540000Y-88500000D03*
X151000000Y-88500000D03*
D12*
X136420000Y-88500000D03*
D13*
X146580000Y-88500000D03*
D14*
X190000000Y-146930000D03*
D15*
X185620000Y-146930000D03*
X194380000Y-146930000D03*
D16*
X185620000Y-143940000D03*
X194380000Y-143940000D03*
D17*
X185620000Y-143490000D03*
X194380000Y-143490000D03*
D18*
X146900000Y-55000000D03*
D19*
X151700000Y-55000000D03*
X156500000Y-55000000D03*
X161300000Y-55000000D03*
X166100000Y-55000000D03*
D20*
X141000000Y-55500000D03*
D21*
X139500000Y-55500000D03*
X138000000Y-55500000D03*
X136500000Y-55500000D03*
X135000000Y-55500000D03*
X133500000Y-55500000D03*
X132000000Y-55500000D03*
X130500000Y-55500000D03*
X129000000Y-55500000D03*
X127500000Y-55500000D03*
D12*
X171000000Y-115390000D03*
X176000000Y-115390000D03*
D14*
X142000000Y-146930000D03*
D15*
X137620000Y-146930000D03*
X146380000Y-146930000D03*
D16*
X137620000Y-143940000D03*
X146380000Y-143940000D03*
D17*
X137620000Y-143490000D03*
X146380000Y-143490000D03*
D22*
X178500000Y-56450000D03*
D23*
X176500000Y-56450000D03*
X174500000Y-56450000D03*
X172500000Y-56450000D03*
D12*
X125000000Y-119080000D03*
X125000000Y-114080000D03*
D24*
X118730000Y-126500000D03*
D25*
X120000000Y-126500000D03*
X121270000Y-126500000D03*
D12*
X115000000Y-108920000D03*
D13*
X115000000Y-119080000D03*
D12*
X131000000Y-109000000D03*
D13*
X131000000Y-119160000D03*
D12*
X120000000Y-119080000D03*
D13*
X120000000Y-108920000D03*
D12*
X141500000Y-119000000D03*
X141500000Y-114000000D03*
D14*
X126000000Y-146930000D03*
D15*
X121620000Y-146930000D03*
X130380000Y-146930000D03*
D16*
X121620000Y-143940000D03*
X130380000Y-143940000D03*
D17*
X121620000Y-143490000D03*
X130380000Y-143490000D03*
D26*
X158000000Y-111500000D03*
D27*
X158000000Y-114040000D03*
X158000000Y-116580000D03*
X158000000Y-119120000D03*
X165620000Y-119120000D03*
X165620000Y-116580000D03*
X165620000Y-114040000D03*
X165620000Y-111500000D03*
D20*
X121000000Y-55500000D03*
D21*
X119500000Y-55500000D03*
X118000000Y-55500000D03*
X116500000Y-55500000D03*
X115000000Y-55500000D03*
X113500000Y-55500000D03*
X112000000Y-55500000D03*
X110500000Y-55500000D03*
X109000000Y-55500000D03*
X107500000Y-55500000D03*
D28*
X183000000Y-60800000D03*
D19*
X178200000Y-60800000D03*
X173400000Y-60800000D03*
D14*
X158000000Y-146930000D03*
D15*
X153620000Y-146930000D03*
X162380000Y-146930000D03*
D16*
X153620000Y-143940000D03*
X162380000Y-143940000D03*
D17*
X153620000Y-143490000D03*
X162380000Y-143490000D03*
D22*
X193500000Y-56450000D03*
D23*
X191500000Y-56450000D03*
X189500000Y-56450000D03*
X187500000Y-56450000D03*
D14*
X174000000Y-146930000D03*
D15*
X169620000Y-146930000D03*
X178380000Y-146930000D03*
D16*
X169620000Y-143940000D03*
X178380000Y-143940000D03*
D17*
X169620000Y-143490000D03*
X178380000Y-143490000D03*
D12*
X136500000Y-119080000D03*
D13*
X136500000Y-108920000D03*
D12*
X171660000Y-88500000D03*
D13*
X161500000Y-88500000D03*
D12*
X171000000Y-111500000D03*
X176000000Y-111500000D03*
D24*
X129730000Y-126500000D03*
D25*
X131000000Y-126500000D03*
X132270000Y-126500000D03*
D14*
X110000000Y-146930000D03*
D15*
X105620000Y-146930000D03*
X114380000Y-146930000D03*
D16*
X105620000Y-143940000D03*
X114380000Y-143940000D03*
D17*
X105620000Y-143490000D03*
X114380000Y-143490000D03*
D29*
X136500000Y-51000000D03*
X112000000Y-51000000D03*
X116500000Y-51000000D03*
X132000000Y-51000000D03*
X129000000Y-52500000D03*
X109000000Y-52500000D03*
X119500000Y-52500000D03*
X139500000Y-52500000D03*
D30*
X114380000Y-142120000D02*
X121270000Y-135230000D01*
X121270000Y-135230000D02*
X121270000Y-126500000D01*
X114380000Y-146930000D02*
X114380000Y-142120000D01*
X132270000Y-126500000D02*
X132270000Y-141600000D01*
X132270000Y-141600000D02*
X130380000Y-143490000D01*
D31*
X156500000Y-55000000D02*
X156500000Y-52000000D01*
X131500000Y-50500000D02*
X131000000Y-50500000D01*
X117000000Y-50500000D02*
X116500000Y-51000000D01*
X132500000Y-50500000D02*
X132000000Y-51000000D01*
X156500000Y-52000000D02*
X155500000Y-51000000D01*
X155500000Y-51000000D02*
X136500000Y-51000000D01*
X136500000Y-51000000D02*
X136000000Y-50500000D01*
X131000000Y-50500000D02*
X117000000Y-50500000D01*
X112500000Y-50500000D02*
X112000000Y-51000000D01*
X116000000Y-50500000D02*
X112500000Y-50500000D01*
X116500000Y-51000000D02*
X116000000Y-50500000D01*
X132000000Y-51000000D02*
X131500000Y-50500000D01*
X136000000Y-50500000D02*
X132500000Y-50500000D01*
X151000000Y-52000000D02*
X140000000Y-52000000D01*
X120000000Y-52000000D02*
X119500000Y-52500000D01*
X151700000Y-52700000D02*
X151700000Y-55000000D01*
X128500000Y-52000000D02*
X120000000Y-52000000D01*
X140000000Y-52000000D02*
X139500000Y-52500000D01*
X119500000Y-52500000D02*
X119000000Y-52000000D01*
X129000000Y-52500000D02*
X128500000Y-52000000D01*
X109500000Y-52000000D02*
X109000000Y-52500000D01*
X151700000Y-52700000D02*
X151000000Y-52000000D01*
X119000000Y-52000000D02*
X109500000Y-52000000D01*
X129500000Y-52000000D02*
X129000000Y-52500000D01*
X139500000Y-52500000D02*
X139000000Y-52000000D01*
X139000000Y-52000000D02*
X129500000Y-52000000D01*
X114250000Y-55500000D02*
X115000000Y-55500000D01*
X114250000Y-55500000D02*
X114250000Y-59000000D01*
X114750000Y-59500000D02*
X133750000Y-59500000D01*
X133750000Y-59500000D02*
X134250000Y-59000000D01*
X113500000Y-55500000D02*
X114250000Y-55500000D01*
X161300000Y-58700000D02*
X161300000Y-55000000D01*
D30*
X171660000Y-88500000D02*
X171660000Y-110840000D01*
X165620000Y-111500000D02*
X171000000Y-111500000D01*
D31*
X160500000Y-59500000D02*
X160750000Y-59250000D01*
D30*
X171000000Y-111500000D02*
X171120000Y-111620000D01*
D31*
X134250000Y-55500000D02*
X134250000Y-59000000D01*
X160750000Y-59250000D02*
X161300000Y-58700000D01*
X134750000Y-59500000D02*
X160500000Y-59500000D01*
X114250000Y-59000000D02*
X114750000Y-59500000D01*
X134250000Y-59000000D02*
X134750000Y-59500000D01*
X133500000Y-55500000D02*
X134250000Y-55500000D01*
D30*
X171660000Y-88500000D02*
X171660000Y-70160000D01*
X171660000Y-110840000D02*
X171000000Y-111500000D01*
X171000000Y-111500000D02*
X171000000Y-115390000D01*
D31*
X134250000Y-55500000D02*
X135000000Y-55500000D01*
D30*
X171660000Y-70160000D02*
X160750000Y-59250000D01*
D31*
X127500000Y-54000000D02*
X127500000Y-55500000D01*
X140500000Y-53500000D02*
X141000000Y-54000000D01*
X141000000Y-54000000D02*
X141000000Y-55500000D01*
X121000000Y-54000000D02*
X121000000Y-55500000D01*
X107500000Y-54000000D02*
X107500000Y-55500000D01*
X127000000Y-53500000D02*
X127500000Y-54000000D01*
X120500000Y-53500000D02*
X121000000Y-54000000D01*
X108000000Y-53500000D02*
X120500000Y-53500000D01*
X128000000Y-53500000D02*
X140500000Y-53500000D01*
X121500000Y-53500000D02*
X127000000Y-53500000D01*
X121000000Y-54000000D02*
X121500000Y-53500000D01*
X141000000Y-54000000D02*
X141500000Y-53500000D01*
X107500000Y-54000000D02*
X108000000Y-53500000D01*
X145400000Y-53500000D02*
X146900000Y-55000000D01*
X141500000Y-53500000D02*
X145400000Y-53500000D01*
X127500000Y-54000000D02*
X128000000Y-53500000D01*
D30*
X110000000Y-145535000D02*
X110000000Y-146930000D01*
X118730000Y-136805000D02*
X110000000Y-145535000D01*
X118730000Y-126500000D02*
X118730000Y-136805000D01*
X126000000Y-130230000D02*
X126000000Y-146930000D01*
X129730000Y-126500000D02*
X126000000Y-130230000D01*
X158000000Y-114040000D02*
X142000000Y-130040000D01*
X142000000Y-130040000D02*
X142000000Y-146930000D01*
X158000000Y-124200000D02*
X158000000Y-146930000D01*
X165620000Y-116580000D02*
X158000000Y-124200000D01*
X115000000Y-119080000D02*
X120000000Y-119080000D01*
X120000000Y-119080000D02*
X125000000Y-119080000D01*
X120000000Y-126230000D02*
X120270000Y-126500000D01*
X120000000Y-119080000D02*
X120000000Y-126230000D01*
X131000000Y-119160000D02*
X136420000Y-119160000D01*
X131000000Y-119160000D02*
X131000000Y-126500000D01*
X136420000Y-119160000D02*
X136500000Y-119080000D01*
X136500000Y-119080000D02*
X141420000Y-119080000D01*
X141420000Y-119080000D02*
X141500000Y-119000000D01*
X146580000Y-88500000D02*
X151000000Y-88500000D01*
X151000000Y-88500000D02*
X153540000Y-88500000D01*
X156080000Y-88500000D02*
X161500000Y-88500000D01*
X120920000Y-103000000D02*
X115000000Y-108920000D01*
X158000000Y-111500000D02*
X149500000Y-103000000D01*
X149500000Y-103000000D02*
X120920000Y-103000000D01*
X165620000Y-114040000D02*
X164206000Y-112626000D01*
X135126000Y-112626000D02*
X131500000Y-109000000D01*
X164206000Y-112626000D02*
X135126000Y-112626000D01*
M02*
