M48
; DRILL file {KiCad 9.0.0} date 2025-05-20T10:08:40-0700
; FORMAT={-:-/ absolute / metric / decimal}
; #@! TF.CreationDate,2025-05-20T10:08:40-07:00
; #@! TF.GenerationSoftware,Kicad,Pcbnew,9.0.0
; #@! TF.FileFunction,Plated,1,4,PTH
FMAT,2
METRIC
; #@! TA.AperFunction,Plated,PTH,ViaDrill
T1C0.400
; #@! TA.AperFunction,Plated,PTH,ComponentDrill
T2C0.460
; #@! TA.AperFunction,Plated,PTH,ComponentDrill
T3C0.730
; #@! TA.AperFunction,Plated,PTH,ComponentDrill
T4C0.750
; #@! TA.AperFunction,Plated,PTH,ComponentDrill
T5C0.800
; #@! TA.AperFunction,Plated,PTH,ComponentDrill
T6C1.550
%
G90
G05
T1
X109.0Y-52.5
X112.0Y-51.0
X116.5Y-51.0
X119.5Y-52.5
X129.0Y-52.5
X132.0Y-51.0
X136.5Y-51.0
X139.5Y-52.5
T2
X105.62Y-143.49
X114.38Y-143.49
X121.62Y-143.49
X130.38Y-143.49
X137.62Y-143.49
X146.38Y-143.49
X153.62Y-143.49
X162.38Y-143.49
X169.62Y-143.49
X178.38Y-143.49
X185.62Y-143.49
X194.38Y-143.49
T3
X107.5Y-55.5
X109.0Y-55.5
X110.5Y-55.5
X112.0Y-55.5
X113.5Y-55.5
X115.0Y-55.5
X116.5Y-55.5
X118.0Y-55.5
X119.5Y-55.5
X121.0Y-55.5
X127.5Y-55.5
X129.0Y-55.5
X130.5Y-55.5
X132.0Y-55.5
X133.5Y-55.5
X135.0Y-55.5
X136.5Y-55.5
X138.0Y-55.5
X139.5Y-55.5
X141.0Y-55.5
T4
X118.73Y-126.5
X120.0Y-126.5
X121.27Y-126.5
X129.73Y-126.5
X131.0Y-126.5
X132.27Y-126.5
X172.5Y-56.45
X174.5Y-56.45
X176.5Y-56.45
X178.5Y-56.45
X187.5Y-56.45
X189.5Y-56.45
X191.5Y-56.45
X193.5Y-56.45
T5
X115.0Y-108.92
X115.0Y-119.08
X120.0Y-108.92
X120.0Y-119.08
X125.0Y-114.08
X125.0Y-119.08
X131.0Y-109.0
X131.0Y-119.16
X136.42Y-88.5
X136.5Y-108.92
X136.5Y-119.08
X141.5Y-114.0
X141.5Y-119.0
X146.58Y-88.5
X151.0Y-88.5
X153.54Y-88.5
X156.08Y-88.5
X158.0Y-111.5
X158.0Y-114.04
X158.0Y-116.58
X158.0Y-119.12
X161.5Y-88.5
X165.62Y-111.5
X165.62Y-114.04
X165.62Y-116.58
X165.62Y-119.12
X171.0Y-111.5
X171.0Y-115.39
X171.66Y-88.5
X176.0Y-111.5
X176.0Y-115.39
T6
X146.9Y-55.0
X151.7Y-55.0
X156.5Y-55.0
X161.3Y-55.0
X166.1Y-55.0
X173.4Y-60.8
X178.2Y-60.8
X183.0Y-60.8
M30
